<svg width="42" height="27" viewBox="0 0 42 27" fill="none" xmlns="http://www.w3.org/2000/svg">
<path d="M38.4388 3.49443H26.2083V0H38.4388V3.49443ZM41.4545 20.9666C40.6822 23.2327 37.9094 26.2083 32.5419 26.2083C27.171 26.2083 22.8204 23.1873 22.8204 16.2928C22.8204 9.46118 26.8827 5.94927 32.3707 5.94927C37.7556 5.94927 41.0439 9.06281 41.762 13.6825C41.8983 14.5665 41.9524 15.7581 41.928 17.4215H27.9031C28.1302 23.0318 33.9886 23.2083 35.9193 20.9666H41.4545ZM28.0254 13.9777H36.7003C36.5168 11.2748 34.7154 10.1007 32.3724 10.1007C29.811 10.1007 28.394 11.4425 28.0254 13.9777ZM11.2975 26.1873H0V0.0366914H12.1484C21.7162 0.178216 21.8979 9.54854 16.9008 12.103C22.9479 14.3045 23.1506 26.1873 11.2975 26.1873ZM5.24165 10.4833H11.5037C15.8857 10.4833 16.5811 5.24165 10.9585 5.24165H5.24165V10.4833ZM11.1665 15.725H5.24165V20.9946H11.0791C16.4168 20.9946 16.0901 15.725 11.1665 15.725Z" fill="black"/>
</svg>
