<svg width="26" height="29" viewBox="0 0 26 29" fill="none" xmlns="http://www.w3.org/2000/svg">
<path d="M0.75 11.506C0.75 6.43589 0.75 3.90016 2.32575 2.32575C3.90151 0.751344 6.43589 0.75 11.506 0.75H14.195C19.2651 0.75 21.8008 0.75 23.3752 2.32575C24.9497 3.90151 24.951 6.43589 24.951 11.506V16.884C24.951 21.9541 24.951 24.4898 23.3752 26.0642C21.7995 27.6387 19.2651 27.64 14.195 27.64H11.506C6.43589 27.64 3.90016 27.64 2.32575 26.0642C0.751344 24.4885 0.75 21.9541 0.75 16.884V11.506Z" stroke="#202020" stroke-width="1.5"/>
<path d="M7.47266 11.506H18.2287M7.47266 16.884H14.1952" stroke="#202020" stroke-width="1.5" stroke-linecap="round"/>
</svg>
