<svg width="27" height="27" viewBox="0 0 27 27" fill="none" xmlns="http://www.w3.org/2000/svg">
<path d="M13.471 0C11.7019 0 9.95023 0.348437 8.31586 1.02542C6.68148 1.7024 5.19645 2.69466 3.94556 3.94556C1.41926 6.47186 0 9.89825 0 13.471C0 19.4251 3.86617 24.4768 9.21415 26.2684C9.8877 26.3762 10.1032 25.9586 10.1032 25.5949V23.3183C6.37177 24.1265 5.57698 21.5131 5.57698 21.5131C4.95732 19.9505 4.08171 19.5329 4.08171 19.5329C2.85585 18.6977 4.176 18.7247 4.176 18.7247C5.5231 18.819 6.23706 20.1122 6.23706 20.1122C7.40904 22.1598 9.38927 21.5536 10.1571 21.2303C10.2784 20.3546 10.6286 19.7619 11.0058 19.4251C8.01523 19.0884 4.87649 17.9299 4.87649 12.7974C4.87649 11.3021 5.38839 10.1032 6.26401 9.14679C6.1293 8.81002 5.65781 7.40904 6.39872 5.59046C6.39872 5.59046 7.53028 5.22674 10.1032 6.9645C11.1674 6.66813 12.3259 6.51995 13.471 6.51995C14.616 6.51995 15.7745 6.66813 16.8387 6.9645C19.4117 5.22674 20.5432 5.59046 20.5432 5.59046C21.2841 7.40904 20.8127 8.81002 20.678 9.14679C21.5536 10.1032 22.0655 11.3021 22.0655 12.7974C22.0655 17.9433 18.9133 19.0749 15.9092 19.4117C16.3942 19.8293 16.8387 20.651 16.8387 21.9038V25.5949C16.8387 25.9586 17.0543 26.3896 17.7413 26.2684C23.0893 24.4633 26.942 19.4251 26.942 13.471C26.942 11.7019 26.5935 9.95023 25.9165 8.31586C25.2396 6.68148 24.2473 5.19645 22.9964 3.94556C21.7455 2.69466 20.2605 1.7024 18.6261 1.02542C16.9917 0.348437 15.24 0 13.471 0Z" fill="#202020"/>
</svg>
