<svg width="26" height="27" viewBox="0 0 26 27" fill="none" xmlns="http://www.w3.org/2000/svg">
<path d="M13.1315 15.6421V10.7523H25.4349C25.6189 11.5804 25.7635 12.356 25.7635 13.447C25.7635 20.9525 20.7291 26.2893 13.1446 26.2893C5.8888 26.2893 0 20.4005 0 13.1446C0 5.8888 5.8888 0 13.1446 0C16.6937 0 19.6644 1.30132 21.9384 3.43075L18.2053 7.05867C17.2589 6.16483 15.6027 5.11326 13.1446 5.11326C8.79376 5.11326 5.24471 8.72804 5.24471 13.1578C5.24471 17.5875 8.79376 21.2023 13.1446 21.2023C18.179 21.2023 20.0324 17.719 20.3742 15.6553H13.1315V15.6421Z" fill="#202020"/>
</svg>
