<svg width="185" height="147" viewBox="0 0 185 147" fill="none" xmlns="http://www.w3.org/2000/svg">
<path d="M7.44601 119.699C7.29469 119.716 7.13906 119.696 7.01263 119.595C6.80623 119.465 6.60415 119.373 6.40637 119.319C5.56881 119.032 5.04488 118.133 4.87241 116.62C4.81636 116.128 4.80245 115.67 4.8642 115.203C4.87185 114.934 4.97143 114.463 5.12511 113.794L5.36015 112.157C5.46738 111.417 5.70437 110.47 6.03329 109.322C6.09935 108.892 5.93412 108.451 6.19267 107.694C6.31381 107.412 6.39281 107.096 6.42966 106.747C6.51102 105.78 6.75232 104.871 7.0736 103.991C7.24453 103.474 7.37763 102.96 7.43506 102.455C7.58012 101.711 7.77163 101.037 8.04743 100.431C8.17288 100.187 8.2854 99.8293 8.4185 99.3159C8.48122 99.1938 8.53964 99.0338 8.59805 98.8739C8.82406 98.5032 8.89874 98.1498 8.85994 97.8094C8.82975 97.5445 8.7196 97.2505 8.53378 96.9651C8.28858 96.4949 8.16118 96.0495 8.10512 95.5578C8.05769 95.1416 8.08161 94.679 8.18119 94.2078C8.26255 93.2405 8.49954 92.2938 8.89648 91.4054C9.13876 90.8413 9.38103 90.2772 9.58117 89.6796C9.89813 88.762 10.4497 87.5495 11.2273 85.9663C12.0136 84.4588 12.5067 83.4062 12.7069 82.8086C12.998 81.6641 13.5807 81.0612 14.4508 80.962C15.0939 80.8887 15.6451 81.0175 16.0665 81.3527C16.1508 81.4197 16.1973 81.491 16.2059 81.5667C16.2188 81.6802 16.0848 81.8488 16.1063 82.0379C16.1236 82.1892 16.1743 82.2984 16.2629 82.4033C16.318 82.5503 16.3731 82.6973 16.3946 82.8865C16.3339 83.6981 16.1596 84.5228 15.834 85.3646C15.7009 85.878 15.5635 86.3535 15.4261 86.829C15.2973 87.3802 15.1307 87.9357 14.9598 88.4534C14.7802 88.8954 14.5097 89.8843 14.1104 91.4243C13.8777 92.4089 13.6819 93.0444 13.5272 93.3686C13.4353 93.5707 13.3434 93.7727 13.2514 93.9748C12.8684 95.3214 12.5601 96.3146 12.3686 96.9879C12.2268 97.4256 12.1565 97.8168 12.0904 98.2459C12.0536 98.595 11.941 98.9527 11.7572 99.3569C11.1754 100.305 10.3227 103.583 9.15263 109.119C8.99561 110.095 8.83762 110.726 8.67865 111.013C8.51106 111.223 8.46558 111.497 8.49576 111.762L8.51732 111.951C8.54319 112.178 8.59396 112.287 8.63179 112.283C8.82094 112.261 9.01774 111.97 9.14221 111.381C9.25042 110.986 9.4927 110.422 9.87336 109.727C10.3503 108.868 10.7429 107.942 11.1355 107.015C11.169 106.973 11.1604 106.898 11.1939 106.856C11.8288 105.365 12.2928 104.393 12.548 103.942C12.7027 103.618 12.9665 103.243 13.2639 102.826C13.4142 102.464 13.2954 102.094 13.5301 101.799C13.7647 101.504 13.915 101.142 14.0233 100.746C14.1477 100.157 14.4073 99.7447 14.7932 99.4324C14.9694 99.2974 15.0657 99.1331 15.0355 98.8683C15.0139 98.6791 15.1015 98.4392 15.2648 98.1907C15.3611 98.0264 15.4822 97.7444 15.6618 97.3024C16.1971 96.2833 16.5485 95.6684 16.7161 95.4577C17.2275 94.9012 17.2289 93.9047 17.5727 93.5589C17.7446 93.3861 17.8744 93.1797 17.9577 92.9019C17.974 92.7085 18.2876 92.0979 18.3839 91.9336C18.572 91.5673 18.7018 91.3609 18.8067 91.2723L18.9915 91.2129C19.1807 91.1913 19.2606 91.2205 19.2649 91.2584C19.2736 91.334 19.2022 91.3805 19.0887 91.3934C19.0131 91.402 18.9795 91.4442 18.9839 91.482C18.9968 91.5955 19.106 91.5447 19.1567 91.6539C19.174 91.8052 19.0528 92.0873 18.8268 92.458C18.4668 92.9972 18.3207 93.397 18.3423 93.5862C18.3552 93.6997 18.3974 93.7332 18.5108 93.7203C18.5487 93.716 18.5865 93.7117 18.6579 93.6652C18.6957 93.6609 19.3402 92.5911 20.5114 90.4265C23.3044 86.3526 25.0215 83.9343 25.7048 83.2049C25.9103 82.9899 26.0065 82.8256 25.9849 82.6365C25.9677 82.4851 25.8834 82.4181 25.6943 82.4397C25.4294 82.4698 25.1235 82.8113 24.7007 83.4726C24.6714 83.5526 24.6422 83.6326 24.6087 83.6747C24.3449 84.0497 24.1902 84.3739 24.174 84.5674C24.0538 85.1942 23.5371 85.3681 23.0559 86.1893C22.8385 86.6357 22.5282 86.9393 22.2093 87.1672C21.7477 87.4881 21.4125 87.9095 21.288 88.4985C21.2339 88.6963 21.1712 88.8184 21.1377 88.8606C21.0998 88.8649 21.1377 88.8606 21.0199 88.8357C20.9442 88.8443 20.8729 88.8908 20.768 88.9794C20.4242 89.3251 20.1647 89.7379 20.0272 90.2134C19.9775 90.449 19.8855 90.6511 19.7893 90.8154C19.6887 90.9418 19.6174 90.9883 19.5417 90.9969C19.4239 90.972 19.3396 90.905 19.3224 90.7536C19.3138 90.678 19.343 90.598 19.3722 90.518C19.7734 89.6675 20.3638 88.7955 21.0969 87.8305C22.0603 86.5327 22.7599 85.6099 23.5222 84.565C24.2888 83.5579 25.1397 82.6178 25.8307 81.6194C26.5303 80.6965 27.2763 79.8451 28.1488 79.0942C28.9077 78.3562 29.6677 77.963 30.3865 77.8811C30.6513 77.8509 30.9582 77.8542 31.2317 77.8997C31.3873 77.9203 31.5851 77.9744 31.7785 77.9907C32.1233 77.9897 32.4389 78.0687 32.721 78.1898C33.2894 78.4699 33.6232 79.045 33.7137 79.8395C33.7741 80.3691 33.7004 81.0673 33.4548 81.9384C33.3423 82.2961 33.2925 82.5317 33.2968 82.5695C33.1972 83.0407 33.0339 83.2893 32.8069 83.3151C32.6178 83.3367 32.487 83.1983 32.4104 82.8622C32.3802 82.5973 32.3457 82.2947 32.3448 81.9499C32.3395 81.5673 32.3342 81.1847 32.2868 80.7686C32.1876 79.8985 32.0472 79.3396 31.5933 79.3914C31.3706 79.4551 31.0517 79.683 30.603 80.1174C30.016 80.6825 29.6343 81.0325 29.4203 81.1719C28.8332 81.737 28.2926 82.3734 27.7984 83.0812L27.2329 83.8355C27.0653 84.0462 26.8934 84.2191 26.6837 84.3963C26.2685 84.7885 25.9334 85.2099 25.716 85.6562C25.5905 85.9005 25.4651 86.1447 25.2975 86.3554C23.7307 88.4117 22.6375 89.9159 22.0644 90.9393C21.7421 91.4742 21.4199 92.0091 21.0555 92.5105C21.022 92.5527 20.7711 93.0411 20.3028 93.9759C19.6842 95.2727 19.2451 96.1275 19.0234 96.536C18.8309 96.8645 18.6762 97.1887 18.5637 97.5464C18.3473 98.3375 17.8359 98.894 17.7287 99.6343C17.6832 99.9078 17.5578 100.152 17.3523 100.367C17.0842 100.704 17.1101 100.931 16.7457 101.433C16.511 101.728 16.2893 102.136 16.1476 102.574C16.0643 102.851 15.9475 103.171 15.7258 103.58C15.4078 104.153 15.2326 104.632 15.2001 105.019C15.1838 105.213 15.1297 105.411 15.0713 105.571C14.9793 105.773 14.8117 105.983 14.5685 106.203C14.2496 106.431 14.0528 106.721 14.0494 107.028C14.0059 107.991 13.7809 108.707 13.4122 109.17C13.1819 109.503 12.8725 110.152 12.5642 111.145C12.0557 112.736 11.2954 114.47 10.3253 116.382C9.78996 117.401 9.09038 118.324 8.23516 119.226C7.92487 119.529 7.673 119.673 7.44601 119.699ZM12.6003 106.082L12.7009 105.956C12.993 105.156 13.3272 104.39 13.7413 103.653C14.519 102.07 15.2966 100.486 16.0698 98.8654C16.4041 98.0992 16.8096 97.2865 17.2865 96.4274C17.5504 96.0524 17.6715 95.7704 17.6543 95.619C17.6413 95.5055 17.5949 95.4342 17.5192 95.4428C17.2922 95.4687 16.97 96.0036 16.5481 97.0097C16.3102 97.6117 16.0301 98.1801 15.7456 98.7107C14.3992 101.355 13.3458 103.545 12.6654 105.308C12.5486 105.628 12.4988 105.864 12.5117 105.977C12.5204 106.053 12.5625 106.086 12.6003 106.082ZM17.8965 95.0549C17.9722 95.0463 18.0306 94.8863 18.0047 94.6594C17.9918 94.5459 17.9497 94.5124 17.9118 94.5167C17.874 94.521 17.7021 94.6939 17.715 94.8073C17.7323 94.9587 17.8587 95.0592 17.8965 95.0549ZM21.0371 88.987L21.0079 89.067L20.9322 89.0756L20.9279 89.0378C20.9236 88.9999 20.9615 88.9956 21.0371 88.987ZM43.4448 107.05C43.2557 107.072 43.0957 107.013 42.9693 106.913C42.9271 106.879 42.8472 106.85 42.7337 106.863C42.4689 106.893 42.3262 106.986 42.2127 106.999C41.7922 107.009 41.2832 106.913 40.652 106.755C37.6519 105.986 35.6204 104.301 34.5577 101.702C34.2229 100.782 34.0059 99.8868 33.8981 98.9411C33.6955 97.163 33.9501 95.0263 34.6664 92.5687C34.8038 92.0932 35.0212 91.6469 35.2429 91.2384C35.4938 90.7499 35.5177 90.2873 35.7643 89.761C35.9903 89.3904 35.8543 88.8694 36.1732 88.6414C36.3408 88.4307 36.4662 88.1865 36.5582 87.9844C36.8296 87.3403 37.3162 86.9016 37.6676 86.2868C38.0483 85.5919 38.7522 84.7069 39.8214 83.6653C40.681 82.8009 41.5836 82.3148 42.5294 82.207C43.1725 82.1337 43.795 82.2161 44.4391 82.4875C46.5227 83.2847 47.6486 84.421 47.8124 85.8586C47.8512 86.1991 47.823 86.6238 47.7277 87.1329C47.6401 87.3728 47.5989 87.6841 47.5621 88.0332C47.4927 88.7692 47.0967 90.0023 46.4164 91.766C46.0237 92.6922 45.5846 93.547 45.0278 94.3769C44.4666 95.1689 43.9379 95.5741 43.4504 95.668C42.963 95.7619 42.6603 95.7964 42.5468 95.8093C41.2984 95.9516 40.1874 95.6183 39.1803 94.8517C38.5525 94.3868 38.144 94.1651 37.917 94.191C37.6901 94.2168 37.5225 94.4275 37.4478 94.7809C37.4229 94.8987 37.4109 95.13 37.3449 95.5591C37.2994 95.8325 37.2118 96.0725 37.1241 96.3124C36.9154 96.8344 36.7995 97.499 36.7852 98.3821C36.745 99.0381 36.7805 99.6856 36.8538 100.329C36.9443 101.123 37.0847 101.682 37.2834 102.081C37.4357 102.408 37.7015 102.723 38.0094 103.071C38.1402 103.209 38.2331 103.352 38.3303 103.533C38.7441 104.137 39.2455 104.501 39.868 104.584C40.3349 104.645 40.7975 104.669 41.2893 104.613C41.7054 104.566 42.1172 104.481 42.5204 104.32C43.4868 104.056 44.4067 103.722 45.2758 103.278C46.6109 102.551 48.3146 101.36 50.3492 99.7102C51.9644 98.4148 53.5288 97.0102 55.0467 95.5343C55.8349 94.7163 56.3635 94.3112 56.704 94.2723C56.8932 94.2508 56.9775 94.3178 56.9947 94.4691C57.0206 94.6961 56.7946 95.0668 56.3588 95.6146C55.9858 96.0404 55.7847 96.2932 55.6798 96.3818C54.6321 97.6126 53.9996 98.4511 53.7065 98.906C53.5184 99.2724 53.2124 99.6138 52.8178 99.8504C52.394 100.167 52.1594 100.462 52.1053 100.66C52.0804 100.778 52.0555 100.895 52.0684 101.009C52.0412 101.778 51.6088 102.019 51.2228 102.332C50.4844 102.914 49.7839 103.492 49.0833 104.07C48.0639 104.876 46.7331 105.641 45.1625 106.318C44.3312 106.758 43.7474 107.016 43.4448 107.05ZM40.6054 93.2331C40.7188 93.2201 40.7902 93.1737 40.8572 93.0894C41.054 92.7987 41.3308 92.5372 41.6497 92.3093C42.5729 91.6676 43.4889 89.9536 44.402 87.2054C44.6313 86.5277 44.7137 85.9052 44.6782 85.2578C44.592 84.5012 44.2266 84.6578 44.1888 84.6621C43.697 84.7181 43.0678 85.2497 42.2633 86.2611C42.0287 86.5561 41.7562 86.8554 41.4838 87.1547C40.8967 87.7198 40.2598 88.5205 39.6153 89.5904C39.3558 90.0032 39.2433 90.3609 39.2778 90.6635C39.2907 90.777 39.308 90.9283 39.3631 91.0754C39.4905 91.5207 39.5714 91.8947 39.6016 92.1595C39.6404 92.5 39.7884 92.7897 40.0412 92.9908C40.2519 93.1584 40.4162 93.2546 40.6054 93.2331ZM60.7439 116.268C60.3278 116.316 59.995 116.086 59.6416 116.011C59.2882 115.936 59.0061 115.815 58.7911 115.61C58.7533 115.614 58.7025 115.505 58.5847 115.48C58.3361 115.317 58.1968 115.103 58.1666 114.838C58.1493 114.686 58.1656 114.493 58.1268 114.153C58.0578 113.547 58.0525 113.165 58.3283 112.558C58.483 112.234 58.8139 111.775 59.2831 111.185C60.1589 110.127 61.0769 109.103 62.0791 108.145C62.184 108.057 62.2888 107.968 62.3937 107.88C62.6283 107.585 62.9429 107.319 63.2618 107.091C63.5472 106.905 63.7613 106.766 63.8661 106.677C64.0381 106.504 64.1343 106.34 64.1127 106.151C64.0955 105.999 64.0069 105.895 63.8848 105.832C63.4385 105.614 62.7748 105.843 62.3241 105.588C62.0756 105.425 61.8735 105.333 61.7179 105.312C61.7179 105.312 61.6551 105.435 61.5795 105.443C61.239 105.482 60.5106 105.143 59.3944 104.428C58.7416 104.08 58.2402 103.716 57.8523 103.339C57.4137 102.852 57.0085 102.324 56.6034 101.795C55.7596 100.78 55.239 99.5745 55.0502 98.2547C54.9812 97.6494 55.03 97.069 55.1545 96.48L55.2704 95.8153C55.5217 93.9856 56.3869 92.1625 57.8368 90.426C58.0044 90.2153 58.3061 89.836 58.704 89.2925C58.93 88.9218 59.1938 88.5469 59.4998 88.2054C60.3799 87.1854 61.3443 86.2324 62.3509 85.3129C62.7703 84.9585 63.1477 84.5706 63.4828 84.1492C63.8808 83.6056 64.3251 83.1335 64.8538 82.7283C65.3738 82.2475 65.8603 81.8088 66.3047 81.3366C67.1977 80.4301 68.7664 79.0633 71.04 77.1563C71.6357 76.6669 72.1471 76.1104 72.6542 75.5161C73.9743 73.9861 75.4382 72.7079 77.05 71.7194C77.3732 71.5293 77.7051 71.4148 78.0455 71.376C78.6887 71.3027 79.3079 71.692 79.8275 72.5525L79.9625 72.7287C80.3212 73.186 80.5243 73.6228 80.5674 74.0011C80.6364 74.6064 80.3141 75.1413 79.6006 75.6058C79.2817 75.8338 78.6612 76.441 77.7432 77.4654C77.1854 77.9505 76.9258 78.3633 76.9689 78.7416C76.7377 78.7296 76.5064 78.7177 76.3043 78.6257C75.9887 78.5467 75.7531 78.4969 75.6018 78.5142C75.1856 78.5616 74.9802 78.7766 74.1456 79.5232C73.5628 80.1262 72.9585 80.5399 72.4126 80.7938C72.0808 80.9082 71.7911 81.0562 71.5478 81.2756C71.2289 81.5035 70.7802 81.9379 70.2018 82.5786C69.8915 82.8822 69.4256 83.1653 68.804 83.4277C68.4386 83.5843 68.0862 83.8544 67.7175 84.318C67.4829 84.613 67.1726 84.9166 66.8537 85.1446C65.6201 86.0899 64.8071 87.0257 64.448 87.9097C64.3939 88.1075 64.289 88.1961 64.142 88.2511C64.1798 88.2468 64.0534 88.1463 63.9777 88.1549C63.7172 88.2229 63.4653 88.3666 63.2642 88.6194C62.7734 89.0203 62.4339 89.4039 62.2371 89.6946C62.0738 89.9431 61.9062 90.1538 61.6965 90.331C60.4175 91.5498 59.3957 93.0075 58.6353 94.742C58.2341 95.5925 57.6815 96.4602 57.6001 97.4276C57.6054 97.8102 57.5643 98.1214 57.481 98.3992C57.4225 98.5591 57.402 98.7148 57.4192 98.8661C57.527 99.8119 58.2899 100.453 58.9977 100.947C59.1241 101.048 59.2548 101.186 59.3813 101.287C59.9377 101.798 60.624 102.103 61.3686 102.248C62.5931 102.568 63.3042 102.756 63.5355 102.768C64.1581 102.85 64.7849 102.97 65.3782 103.132C66.2072 103.345 66.7919 103.431 67.208 103.384C67.8511 103.31 68.8543 102.698 70.2133 101.508C70.7419 101.103 71.17 100.824 71.5019 100.71C71.7959 100.6 72.0099 100.46 72.1483 100.33C72.6597 99.7732 73.2305 99.4016 73.8607 99.2148C74.2347 99.1339 74.4823 98.9524 74.6499 98.7417C74.9515 98.3624 75.4563 98.4198 75.586 98.2134C75.6152 98.1334 75.7579 98.0405 75.9428 97.9811C76.8703 97.3772 78.134 96.6967 79.7717 95.9352C79.9479 95.8002 80.9305 95.3433 82.7152 94.5267C83.8027 93.9812 84.4621 93.7145 84.6513 93.6929C84.6891 93.6886 84.7312 93.7221 84.7399 93.7978C84.7743 94.1004 84.3257 94.5348 83.3938 95.1008C82.609 95.6118 81.8198 96.085 81.0642 96.516C80.594 96.7612 80.2372 96.9935 80.0026 97.2885C79.835 97.4992 79.5831 97.6429 79.2556 97.7952C79.0329 97.8589 78.8189 97.9982 78.6048 98.1376C78.3237 98.3612 78.0383 98.5471 77.7194 98.775C77.1778 99.0667 76.8632 99.3325 76.7421 99.6145C76.6415 99.741 76.5745 99.8252 76.541 99.8674C76.4275 99.8803 76.3011 99.7798 76.2632 99.7841C76.1497 99.797 76.0784 99.8435 76.0535 99.9613C75.9616 100.163 75.8232 100.294 75.6383 100.353C74.513 100.903 73.6947 101.456 73.1833 102.013C72.8773 102.354 72.5248 102.624 72.0546 102.87C71.7271 103.022 71.446 103.246 71.2027 103.465C71.0308 103.638 70.8211 103.815 70.607 103.954C70.0741 104.322 69.8481 104.692 69.8912 105.071C69.9257 105.373 70.1201 105.734 70.4702 106.116C70.8667 106.569 71.1162 107.077 71.1723 107.569C71.2154 107.947 71.1829 108.334 71.0368 108.734C70.7079 109.883 69.9078 110.932 68.5986 111.886C66.1186 113.663 64.1122 114.888 62.5751 115.523L61.8108 115.879C61.4163 116.115 61.0466 116.234 60.7439 116.268ZM62.425 111.517C62.4628 111.512 62.5007 111.508 62.572 111.462C62.878 111.12 63.2683 110.846 63.7428 110.638C64.3979 110.334 65.3211 109.692 66.5082 108.675C67.0454 108.346 67.5233 107.831 67.9504 107.208C68.0467 107.044 68.0716 106.926 68.0587 106.812C68.0414 106.661 67.9193 106.598 67.6923 106.624C67.314 106.667 66.9237 106.942 66.488 107.49C66.2447 107.709 65.9637 107.933 65.6404 108.123C65.3886 108.266 65.1831 108.481 65.0155 108.692C64.7809 108.987 64.5041 109.249 64.1474 109.481C63.6187 109.886 63.2079 110.316 62.8435 110.817C62.6046 111.075 62.4791 111.319 62.425 111.517ZM86.6328 103.009C86.4437 103.031 86.3843 102.846 85.9303 102.898C85.3585 102.925 84.8485 102.484 84.4089 101.653C84.2566 101.326 84.0329 101.045 83.805 100.726C83.3706 100.277 83.1168 99.731 83.0478 99.1258C82.9874 98.5961 83.0482 97.7844 83.2258 96.6529C83.4991 93.6709 83.9917 90.9323 84.695 88.3612C85.0445 87.0567 85.3399 85.95 85.5013 85.0119C85.641 83.8847 85.9451 82.8536 86.4047 81.8432C86.6221 81.3969 86.8611 81.1397 87.2015 81.1009C87.3907 81.0794 87.5463 81.0999 87.8868 81.0611C88.6812 80.9706 89.1017 80.961 89.4862 81.6453C89.6256 81.8593 89.6893 82.082 89.7152 82.309C89.7497 82.6116 89.6836 83.0407 89.4749 83.5627C89.3245 83.9247 89.2163 84.3202 89.1081 84.7158C89.0334 85.0692 88.9166 85.3891 88.7998 85.709C88.6624 86.1845 88.5 86.7778 88.3842 87.4425C88.2597 88.0315 88.1601 88.5027 88.0433 88.8226C87.8518 89.4959 87.7273 90.0849 87.6613 90.514C87.5746 91.0987 87.4664 91.4943 87.3031 91.7428C87.0187 92.2734 86.8985 92.9003 86.867 93.632C86.8095 94.1367 86.6937 94.8014 86.5151 95.5882C86.4155 96.0594 86.316 96.5306 86.2207 97.0396C86.1556 97.8135 86.284 98.6036 86.2146 99.3396C86.1897 99.4574 86.2026 99.5709 86.2156 99.6844C86.2414 99.9114 86.3678 100.012 86.5948 99.9861C86.9353 99.9473 87.2585 99.7572 87.5645 99.4157C88.1516 98.8506 88.6165 98.2228 89.035 97.5236C90.6755 94.7691 92.1474 91.8805 93.4593 88.9334C93.7978 88.2051 94.2412 87.3881 94.756 86.5247C94.9777 86.1162 95.1615 85.712 95.3033 85.2743C96.043 83.6954 97.0811 82.0443 98.4262 80.3964C98.849 79.7351 99.382 79.3677 100.063 79.2901C100.555 79.2341 100.812 79.473 100.906 79.9605C100.945 80.301 100.836 80.6965 100.585 81.185C100.393 81.5135 100.305 81.7534 100.323 81.9047C100.331 81.9804 100.34 82.0561 100.391 82.1652C100.428 82.1609 100.428 82.1609 100.433 82.1988C100.484 82.3079 100.492 82.3836 100.501 82.4593C100.518 82.6106 100.497 82.7662 100.443 82.964C100.369 83.3174 100.349 83.8178 100.305 84.436C100.273 85.1677 100.157 85.8324 100.088 86.5684C99.8929 87.5487 99.778 88.5582 99.7723 89.5169L99.7666 90.4756C99.6354 91.6785 99.6039 92.4102 99.6384 92.7128C99.6317 93.3267 99.5278 93.7601 99.3602 93.9708C99.5623 94.0628 99.6595 94.2433 99.7318 94.5416L99.7836 94.9956C99.8181 95.2982 99.8061 95.5295 99.8234 95.6809C99.957 96.8536 100.518 97.4028 101.539 97.2864C101.728 97.2649 102.027 97.1925 102.354 97.0402C103.446 96.5326 104.566 95.6002 105.71 94.2052C105.878 93.9944 106.045 93.7837 106.213 93.573C106.573 93.0338 106.921 92.7259 107.186 92.6957C107.451 92.6655 107.577 92.7661 107.603 92.993C107.659 93.4848 107.316 94.1754 106.541 95.1068C106.13 95.5369 105.803 96.034 105.599 96.5938C105.444 96.918 105.248 97.2086 105.004 97.428C104.828 97.563 104.656 97.7359 104.564 97.938C104.372 98.2665 104.091 98.4902 103.725 98.6468C103.389 98.7234 103.192 99.0141 103.054 99.1448C102.878 99.2799 102.466 99.3651 101.823 99.4384C100.537 99.585 99.5899 99.348 99.0205 98.7232C98.7211 98.4507 98.4554 98.1361 98.2274 97.8172C98.1345 97.6745 98.0038 97.5361 97.8687 97.3599C97.1935 96.4788 96.7787 95.5297 96.6201 94.4748C96.4779 93.2264 96.4328 92.1585 96.4849 91.2711C96.6294 88.8404 96.7476 87.524 96.8396 87.3219C96.8937 87.1241 96.9056 86.8928 96.9176 86.6615C96.8874 86.3967 96.8366 86.2875 96.7232 86.3005C96.6853 86.3048 96.614 86.3512 96.5134 86.4776C96.3837 86.684 96.2917 86.8861 96.2041 87.1261C96.004 87.7237 95.766 88.3256 95.4902 88.9319C94.997 89.9845 94.546 91.0706 94.1706 92.1481C93.1819 94.905 92.2669 96.9637 91.4634 98.3199C90.6686 99.7517 90.1873 100.573 90.0284 100.859C89.5385 101.605 88.691 102.238 87.4143 102.805C87.1581 102.911 86.8976 102.979 86.6328 103.009ZM105.302 113.489C105.037 113.519 104.931 113.263 104.477 113.315L104.364 113.328C104.175 113.349 103.897 113.266 103.611 113.107C102.962 112.798 102.604 112.341 102.535 111.735C102.474 111.206 102.514 110.55 102.697 109.801C103.293 106.284 103.607 104.332 103.639 103.945C103.697 103.44 103.759 102.973 103.896 102.498C104.204 101.505 104.345 100.722 104.398 100.18C104.377 99.9904 104.402 99.8726 104.506 99.784C104.603 99.6198 104.64 99.2707 104.659 98.7703C104.736 97.7651 104.939 96.5157 105.267 95.0221C105.61 92.9903 106.021 91.2189 106.425 89.7167C106.716 88.5722 107.027 86.9272 107.361 84.8197C107.49 84.2685 107.514 83.8059 107.475 83.4655C107.462 83.352 107.407 83.205 107.356 83.0958C107.293 82.8731 107.233 82.6883 107.22 82.5748C107.194 82.3478 107.24 82.0744 107.39 81.7123C107.482 81.5103 107.649 80.9548 107.814 80.0545C107.935 79.4276 108.117 78.6787 108.359 77.7698C108.575 76.9787 108.729 76.3097 108.858 75.7585C108.924 75.3294 108.994 74.9382 109.102 74.5426C109.181 74.227 109.26 73.9115 109.301 73.6002C109.296 73.2176 109.367 72.8263 109.517 72.4643C109.604 72.2244 109.654 71.9888 109.662 71.7197C109.656 70.9923 110.016 70.453 110.734 70.0263C110.914 69.9291 111.061 69.874 111.212 69.8568C111.439 69.8309 111.641 69.9228 111.852 70.0904C111.954 70.3088 112.194 70.3964 112.534 70.3576L112.648 70.3447C113.224 70.3557 113.523 70.6281 113.579 71.1199C113.631 71.5739 113.552 71.8895 113.586 72.1921L113.693 72.7931C113.707 73.2514 113.641 73.6804 113.424 74.1267C113.273 74.4888 113.102 75.0064 112.986 75.6711C112.916 76.0624 112.695 76.8156 112.396 77.8845C112.105 79.029 111.884 79.7823 111.818 80.2113C111.743 80.5647 111.664 80.8803 111.585 81.1959C111.282 82.5717 111.215 83.9973 110.874 85.3774C110.799 85.7308 110.72 86.0464 110.683 86.3955C110.605 87.0559 110.443 87.6492 110.225 88.0955C109.954 88.7396 109.817 89.2151 109.847 89.4799C109.881 89.7826 109.974 89.9253 110.163 89.9037C110.39 89.8779 110.641 89.3894 110.92 88.4762L111.008 88.2363C111.112 87.8029 111.351 87.5457 111.683 87.4312C112.052 87.3125 112.446 86.7311 112.859 85.6493C113.243 84.6475 113.582 83.9191 113.837 83.4685C114.101 83.0935 114.242 82.6558 114.304 82.1889C114.265 81.8485 114.273 81.5793 114.289 81.3859C114.285 81.348 114.527 80.7839 114.641 80.771L114.683 80.8045L114.713 81.0693C114.755 81.1028 114.797 81.1364 114.835 81.132C114.911 81.1234 115.011 80.997 115.103 80.7949C115.363 80.3821 115.748 79.7251 116.225 78.866L118.387 74.6341C118.863 73.775 119.466 72.6716 120.236 71.3576C120.771 70.3385 121.06 69.8457 121.363 69.8112C121.4 69.8069 121.522 69.8697 121.589 69.4406C121.579 69.0201 121.964 68.3631 122.668 67.4781C123.321 66.484 123.949 65.6076 124.519 64.8912C124.892 64.4654 125.29 63.9219 125.713 63.2606C126.483 61.9465 127.419 61.4183 127.531 61.0606C127.518 60.9471 127.338 61.0443 127.316 60.8551C127.295 60.666 128.022 60.6597 128.303 60.4361C128.442 60.3053 128.576 60.1368 128.739 59.8882C129.003 59.5133 129.511 59.2637 130.259 59.1018C130.633 59.0209 130.969 58.9443 131.309 58.9054C131.654 58.9045 131.966 58.9456 132.323 59.0582C133.447 59.5049 134.404 60.5071 134.538 61.6798C134.586 62.096 134.591 62.4786 134.596 62.8612C134.593 63.1682 134.589 63.4751 134.586 63.7821C134.63 64.5052 134.539 65.052 134.322 65.4984C134.109 65.9825 134.051 66.4872 134.112 67.0169L134.129 67.1682C134.182 67.9669 134.033 69.0185 133.726 70.3565C133.606 70.9834 133.548 71.4881 133.558 71.9085C133.581 72.4425 133.477 72.8759 133.246 73.2087C133.083 73.4572 133.004 73.7728 132.934 74.164C132.801 74.6774 132.739 75.1443 132.748 75.5647C132.749 75.9095 132.708 76.2208 132.667 76.5321C132.44 77.8992 132.186 79.0394 131.903 79.9148C131.457 81.3835 131.603 82.325 131.239 83.1712C130.922 84.0887 130.924 84.7783 130.691 85.4181C130.357 86.1843 130.22 87.0046 130.201 87.8498C130.19 88.4259 130.129 88.8928 130.012 89.2126C129.87 89.6503 129.813 90.1551 129.835 90.689C129.836 91.0338 129.837 91.3786 129.763 91.732C129.609 92.401 129.535 93.0992 129.55 93.9022C129.517 94.2892 129.514 94.5961 129.54 94.8231C129.587 95.2392 129.836 95.4025 129.987 95.3853C130.139 95.368 130.348 95.1908 130.574 94.8202C130.704 94.6138 130.934 94.2809 131.274 93.8974C131.953 93.1302 132.899 91.6811 134.15 89.5457C136.122 86.3319 137.151 84.6051 137.239 84.3652C137.452 83.881 137.615 83.6325 137.8 83.5731L137.817 83.7244C137.852 84.027 137.907 84.1741 137.982 84.1654C138.096 84.1525 138.544 83.3734 139.321 81.7902C139.69 81.3266 139.849 81.0402 139.836 80.9267C139.81 80.6998 139.676 80.8683 139.654 80.6792C139.637 80.5279 139.704 80.4436 139.704 80.4436C139.909 79.8838 140.193 79.3532 140.553 78.8139C140.905 78.1991 141.135 77.8662 141.286 77.849C141.286 77.849 141.358 77.8025 141.371 77.916C141.346 78.0338 141.316 78.1138 141.329 78.2273C141.334 78.2651 141.376 78.2986 141.451 78.29C141.489 78.2857 141.561 78.2392 141.661 78.1128C142.004 77.4223 142.239 77.1273 142.221 76.976C142.217 76.9381 142.175 76.9046 142.137 76.9089C141.999 77.0397 141.928 77.4309 141.739 77.4525C141.701 77.4568 141.659 77.4232 141.655 77.3854C141.633 77.1963 141.763 76.9899 141.998 76.6949C142.098 76.5684 142.165 76.4842 142.199 76.442C142.492 75.9871 142.693 75.7342 142.807 75.7213C142.882 75.7127 142.924 75.7462 142.933 75.8218C142.946 75.9353 142.56 76.2476 142.573 76.3611C142.582 76.4367 142.624 76.4703 142.662 76.4659C142.737 76.4573 142.846 76.4065 142.947 76.2801C143.152 76.0651 143.273 75.783 143.348 75.4296C143.54 74.7563 143.908 74.2928 144.459 74.0768C144.937 73.9072 145.421 73.7755 145.95 73.7151C145.984 73.673 146.093 73.6222 146.32 73.5964C146.85 73.536 147.809 73.8865 147.962 74.5588C147.98 74.7101 147.946 74.7523 147.951 74.7901C147.963 74.9036 148.052 75.0085 148.216 75.1047C148.68 75.4734 148.925 75.9436 148.998 76.5868C148.991 76.8559 148.987 77.1628 148.946 77.4741C148.88 77.9032 148.89 78.3236 148.899 78.7441C148.9 79.0889 148.885 79.6271 148.853 80.3588C148.785 81.4396 148.695 82.3313 148.617 82.9917C148.39 84.3588 148.255 85.8687 148.247 87.4792C148.183 88.5978 148.173 89.5187 148.264 90.3131C148.38 91.3345 148.769 92.0566 149.384 92.4081C149.59 92.5379 149.864 92.5833 150.128 92.5532C150.507 92.51 150.948 92.3448 151.409 92.0239C152.094 91.6394 152.727 91.1456 153.23 90.5135L153.247 90.6648C153.398 91.9889 153.161 92.9356 152.507 93.585C152.192 93.8508 151.789 94.0117 151.335 94.0634L150.801 94.086L150.574 94.1118C149.402 94.2455 149.051 93.8639 148.576 93.7265C147.658 93.4095 146.942 92.8397 146.347 91.9878C145.676 91.1446 145.299 90.1911 145.182 89.1697C145.161 88.9806 145.135 88.7536 145.147 88.5223C145.003 86.5843 145.073 84.507 145.319 82.2946C145.384 81.5207 145.449 80.7469 145.51 79.9352C145.491 79.4391 145.553 78.9722 145.61 78.4675C145.752 78.0298 145.789 77.6807 145.763 77.4537C145.733 77.1889 145.602 77.0505 145.413 77.072C145.186 77.0979 144.947 77.3551 144.692 77.8057C144.658 77.8479 144.625 77.89 144.591 77.9321C143.557 79.2764 142.975 80.2241 142.775 80.8217C142.545 81.4993 142.067 81.6689 141.724 82.3594C141.627 82.5237 141.431 82.8144 141.133 83.2315C140.572 84.0236 139.965 85.0891 139.284 86.508C138.912 87.2785 138.556 87.8556 138.255 88.2348C138.083 88.4077 137.886 88.6984 137.744 89.1361C137.748 89.1739 137.748 89.1739 137.748 89.1739C137.657 89.376 137.556 89.5025 137.418 89.6332C137.107 89.9368 136.827 90.5052 136.493 91.2714C136.322 91.7891 136.067 92.2397 135.761 92.5812C135.593 92.7919 135.43 93.0404 135.271 93.3268C135.179 93.5289 135.083 93.6932 134.991 93.8952C134.756 94.1902 134.438 94.763 133.995 95.58C133.384 96.6076 132.554 97.3921 131.504 97.9333C131.034 98.1785 130.555 98.348 130.101 98.3997C129.907 98.3835 129.592 98.3045 129.183 98.0828C129.057 97.9822 128.973 97.9152 128.855 97.8903C128.291 97.648 127.794 97.3214 127.364 96.9106C126.723 96.3322 126.359 95.4922 126.234 94.3952C126.169 93.8277 126.188 92.9825 126.252 91.8639C126.248 91.826 126.239 91.7504 126.235 91.7125C126.328 90.5139 126.497 89.3067 126.742 88.0908C126.803 87.6239 126.865 87.157 126.931 86.728C127.075 85.6385 127.299 84.5783 127.566 83.5516C127.59 83.4338 127.615 83.316 127.64 83.1982C127.894 82.4028 128.044 81.6959 128.088 81.0777C128.146 80.573 128.237 80.0261 128.37 79.5128C128.752 77.8214 129.13 76.0922 129.436 74.4094C129.685 73.2314 129.934 72.0533 130.187 70.9131C130.502 69.306 130.725 67.901 130.785 66.7446C130.983 65.4573 130.992 64.1917 130.879 62.8633C130.832 62.4472 130.873 62.1359 130.998 61.8917C131.023 61.7739 131.052 61.6939 131.048 61.6561C131.035 61.5426 130.951 61.4756 130.837 61.4885C130.686 61.5057 130.296 61.7801 129.709 62.3452C128.408 63.3749 127.318 64.5721 126.468 65.857C126.175 66.3119 125.778 66.8554 125.208 67.5719C124.935 67.8712 124.701 68.1662 124.475 68.5368C124.345 68.7432 124.211 68.9118 124.043 69.1225C123.846 69.4132 123.65 69.7039 123.495 70.0281C123.211 70.5587 122.917 71.0136 122.587 71.4729C122.222 71.9743 121.9 72.5092 121.62 73.0776C121.131 74.168 120.571 75.3049 119.897 76.4547C118.905 78.1772 118.169 79.4491 117.768 80.2996C117.433 81.0658 117.174 81.4786 116.918 81.5845C116.653 81.6146 116.552 81.7411 116.583 82.0059L116.655 82.3042C116.622 82.6911 116.481 83.1288 116.188 83.5838C115.586 85.0319 114.958 85.9083 114.26 87.5207C113.985 88.1269 113.771 88.6111 113.621 88.9731C113.187 90.2105 112.674 91.4187 112.08 92.5977C111.804 93.204 111.562 93.7681 111.362 94.3658C111.22 94.8035 111.04 95.2455 110.819 95.654C110.363 96.7022 109.858 97.9861 109.345 99.5391C108.707 101.336 108.199 102.927 107.858 104.307C107.695 104.901 107.495 105.498 107.257 106.1C107.111 106.5 107.012 106.971 106.959 107.514C106.897 107.981 106.756 108.763 106.532 109.823C106.233 111.237 106.106 112.133 106.107 112.478C106.137 112.743 106.087 112.978 105.986 113.105C105.781 113.32 105.567 113.459 105.302 113.489ZM105.307 101.762L105.345 101.758C105.382 101.754 105.378 101.716 105.374 101.678C105.369 101.64 105.327 101.607 105.289 101.611C105.252 101.615 105.252 101.615 105.256 101.653L105.307 101.762ZM105.415 101.367L105.453 101.362C105.491 101.358 105.52 101.278 105.507 101.165C105.494 101.051 105.447 100.98 105.372 100.988C105.296 100.997 105.267 101.077 105.28 101.19C105.293 101.304 105.339 101.375 105.415 101.367ZM105.484 100.631C105.522 100.626 105.556 100.584 105.551 100.546C105.547 100.509 105.547 100.509 105.505 100.475C105.467 100.479 105.434 100.521 105.442 100.597C105.447 100.635 105.447 100.635 105.484 100.631ZM105.929 98.8171C105.967 98.8128 105.996 98.7328 105.983 98.6194C105.979 98.5815 105.979 98.5815 105.941 98.5858L105.794 98.6409C105.807 98.7544 105.853 98.8258 105.929 98.8171ZM106.058 98.2659C106.096 98.2616 106.276 98.1644 106.225 97.7105C106.194 97.4456 106.345 97.0836 106.314 96.8188C106.297 96.6675 106.289 96.5918 106.251 96.5961C106.099 96.6134 106.012 96.8533 105.954 97.358C105.947 97.6271 105.935 97.8584 105.952 98.0098C105.974 98.1989 106.02 98.2703 106.058 98.2659ZM106.405 96.2719C106.519 96.259 106.422 96.0785 106.501 95.7629L106.517 95.5694C106.336 95.6666 106.24 95.8309 106.266 96.0579C106.283 96.2092 106.33 96.2805 106.405 96.2719ZM106.5 95.4181L106.613 95.4052C106.651 95.4008 106.659 95.1317 106.636 94.5978C106.632 94.56 106.632 94.56 106.594 94.5643C106.556 94.5686 106.255 94.9479 106.285 95.2127C106.34 95.3597 106.424 95.4267 106.5 95.4181ZM106.766 94.3914L106.795 94.3114C106.791 94.2736 106.791 94.2736 106.753 94.2779C106.719 94.32 106.719 94.32 106.724 94.3579C106.728 94.3957 106.728 94.3957 106.766 94.3914ZM106.927 93.4533C106.965 93.449 106.999 93.4068 107.028 93.3268C107.024 93.289 107.078 93.0912 107.103 92.9734C107.09 92.8599 107.085 92.8221 107.047 92.8264C106.858 92.848 106.8 93.0079 106.83 93.2727C106.843 93.3862 106.889 93.4576 106.927 93.4533ZM109.949 91.3844C110.062 91.3715 110.125 91.2494 110.112 91.1359C110.099 91.0224 110.057 90.9888 109.981 90.9975C109.944 91.0018 109.906 91.0061 109.872 91.0482C109.801 91.0947 109.772 91.1747 109.78 91.2503C109.793 91.3638 109.835 91.3973 109.949 91.3844ZM127.861 88.4997C128.008 88.4446 127.94 88.1841 127.957 87.9907C127.944 87.8772 127.897 87.8058 127.859 87.8102C127.855 87.7723 127.7 88.0965 127.718 88.2478C127.735 88.3992 127.781 88.4705 127.861 88.4997ZM128.636 84.5409C128.825 84.5193 128.937 83.8168 128.903 83.5142C128.89 83.4007 128.843 83.3293 128.767 83.3379C128.654 83.3509 128.596 83.5108 128.55 83.7843C128.534 83.9777 128.518 84.1712 128.539 84.3603C128.552 84.4738 128.599 84.5452 128.636 84.5409ZM128.985 82.8916C129.098 82.8787 129.17 82.8322 129.157 82.7188C129.152 82.6809 129.072 82.6517 128.959 82.6646C128.846 82.6776 128.812 82.7197 128.821 82.7954C128.829 82.871 128.871 82.9046 128.985 82.8916ZM129.104 81.92C129.142 81.9157 129.175 81.8735 129.167 81.7979C129.162 81.7601 129.158 81.7222 129.12 81.7265C129.082 81.7308 129.02 81.853 129.024 81.8908C129.028 81.9286 129.066 81.9243 129.104 81.92ZM140.225 80.3076C140.301 80.2989 140.334 80.2568 140.321 80.1433C140.309 80.0298 140.266 79.9963 140.224 79.9628C140.149 79.9714 140.119 80.0514 140.094 80.1692C140.107 80.2827 140.15 80.3162 140.225 80.3076ZM129.136 81.1883L129.212 81.5244C129.237 81.4066 129.338 81.2802 129.485 81.2251C129.636 81.2079 129.703 81.1236 129.69 81.0101C129.682 80.9345 129.504 80.7247 129.353 80.742C129.164 80.7635 129.105 80.9235 129.136 81.1883ZM140.505 79.7391C140.581 79.7305 140.669 79.4906 140.66 79.4149C140.546 79.4279 140.399 79.4829 140.417 79.6343C140.425 79.7099 140.467 79.7434 140.505 79.7391ZM141.058 78.8714C141.096 78.8671 141.096 78.8671 141.091 78.8292C141.087 78.7914 141.083 78.7536 141.045 78.7579C141.045 78.7579 141.049 78.7957 141.016 78.8379C141.058 78.8714 141.058 78.8714 141.058 78.8714ZM129.744 79.1262C129.857 79.1133 129.929 79.0669 129.916 78.9534C129.916 78.9534 129.831 78.8863 129.68 78.9036C129.604 78.9122 129.571 78.9543 129.579 79.03C129.588 79.1057 129.63 79.1392 129.744 79.1262ZM129.922 78.3395C129.96 78.3351 129.994 78.293 129.985 78.2173C129.972 78.1038 129.926 78.0325 129.85 78.0411C129.812 78.0454 129.816 78.0833 129.783 78.1254L129.792 78.2011C129.804 78.3146 129.847 78.3481 129.922 78.3395ZM137.905 83.4845C137.867 83.4888 137.867 83.4888 137.863 83.451C137.845 83.2996 138.118 83.0003 138.156 82.996C138.194 82.9917 138.231 82.9874 138.236 83.0252C138.24 83.0631 138.206 83.1052 138.177 83.1852C138.081 83.3494 138.014 83.4337 137.905 83.4845ZM138.75 82.1618C138.75 82.1618 138.75 82.1618 138.708 82.1283C138.742 82.0861 138.742 82.0861 138.742 82.0861C138.78 82.0818 138.78 82.0818 138.784 82.1197C138.788 82.1575 138.788 82.1575 138.75 82.1618ZM139.336 81.2519C139.299 81.2562 139.294 81.2184 139.252 81.1849C139.239 81.0714 139.373 80.9028 139.483 80.8521L139.491 80.9277C139.504 81.0412 139.45 81.239 139.336 81.2519ZM113.654 82.8761C113.617 82.8805 113.574 82.8469 113.57 82.8091C113.566 82.7713 113.599 82.7291 113.675 82.7205C113.751 82.7119 113.788 82.7076 113.793 82.7454C113.726 82.8297 113.692 82.8718 113.654 82.8761ZM141.387 77.7226C141.349 77.7269 141.349 77.7269 141.345 77.689C141.34 77.6512 141.412 77.6048 141.601 77.5832L141.643 77.6167C141.647 77.6545 141.576 77.701 141.387 77.7226ZM126.709 61.5759C126.667 61.5423 126.629 61.5467 126.624 61.5088C126.607 61.3575 126.917 61.0539 127.107 61.0323C127.144 61.028 127.182 61.0237 127.187 61.0615C127.199 61.175 126.746 61.5715 126.709 61.5759ZM167.302 92.9334C167.112 92.955 166.953 92.8966 166.826 92.796C166.784 92.7625 166.704 92.7333 166.59 92.7462C166.326 92.7764 166.183 92.8693 166.069 92.8823C165.649 92.8919 165.14 92.7966 164.509 92.6386C161.509 91.8692 159.477 90.1847 158.414 87.5849C158.08 86.665 157.863 85.7701 157.755 84.8243C157.552 83.0463 157.807 80.9095 158.523 78.4519C158.661 77.9764 158.878 77.5301 159.1 77.1216C159.351 76.6332 159.374 76.1706 159.621 75.6443C159.847 75.2736 159.711 74.7526 160.03 74.5247C160.198 74.314 160.323 74.0697 160.415 73.8676C160.686 73.2235 161.173 72.7849 161.524 72.17C161.905 71.4751 162.609 70.5901 163.678 69.5485C164.538 68.6841 165.44 68.198 166.386 68.0902C167.029 68.0169 167.652 68.0993 168.296 68.3708C170.379 69.168 171.505 70.3043 171.669 71.7418C171.708 72.0823 171.68 72.5071 171.585 73.0161C171.497 73.256 171.456 73.5673 171.419 73.9164C171.349 74.6524 170.954 75.8855 170.273 77.6492C169.881 78.5754 169.441 79.4302 168.885 80.2601C168.323 81.0522 167.795 81.4573 167.307 81.5512C166.82 81.6451 166.517 81.6796 166.404 81.6925C165.155 81.8348 164.044 81.5016 163.037 80.735C162.409 80.27 162.001 80.0483 161.774 80.0742C161.547 80.1001 161.379 80.3108 161.305 80.6642C161.28 80.782 161.268 81.0133 161.202 81.4423C161.156 81.7158 161.069 81.9557 160.981 82.1956C160.772 82.7176 160.656 83.3823 160.642 84.2653C160.602 84.9214 160.637 85.5688 160.711 86.2119C160.801 87.0063 160.941 87.5652 161.14 87.9641C161.293 88.2916 161.558 88.6062 161.866 88.9543C161.997 89.0927 162.09 89.2354 162.187 89.4159C162.601 90.0202 163.102 90.3846 163.725 90.467C164.192 90.5287 164.654 90.5526 165.146 90.4966C165.562 90.4492 165.974 90.3639 166.377 90.203C167.344 89.9396 168.263 89.6048 169.133 89.1608C170.468 88.4338 172.171 87.2433 174.206 85.5935C175.821 84.298 177.386 82.8934 178.904 81.4175C179.692 80.5995 180.22 80.1944 180.561 80.1556C180.75 80.134 180.834 80.2011 180.852 80.3524C180.877 80.5794 180.651 80.95 180.216 81.4979C179.843 81.9236 179.641 82.1764 179.537 82.265C178.489 83.4958 177.856 84.3343 177.563 84.7893C177.375 85.1556 177.069 85.4971 176.675 85.7336C176.251 86.0502 176.016 86.3452 175.962 86.543C175.937 86.6608 175.912 86.7786 175.925 86.8921C175.898 87.6616 175.466 87.9025 175.08 88.2147C174.341 88.7971 173.641 89.3751 172.94 89.9531C171.921 90.7591 170.59 91.524 169.019 92.2012C168.188 92.6408 167.604 92.8989 167.302 92.9334ZM164.462 79.1163C164.576 79.1034 164.647 79.0569 164.714 78.9726C164.911 78.6819 165.188 78.4205 165.507 78.1925C166.43 77.5508 167.346 75.8369 168.259 73.0886C168.488 72.411 168.57 71.7884 168.535 71.141C168.449 70.3844 168.083 70.541 168.046 70.5453C167.554 70.6014 166.925 71.133 166.12 72.1444C165.885 72.4394 165.613 72.7387 165.341 73.038C164.753 73.6031 164.117 74.4038 163.472 75.4736C163.213 75.8864 163.1 76.2441 163.135 76.5468C163.148 76.6603 163.165 76.8116 163.22 76.9586C163.347 77.4039 163.428 77.7779 163.458 78.0427C163.497 78.3832 163.645 78.6729 163.898 78.874C164.109 79.0416 164.273 79.1379 164.462 79.1163Z" fill="#B22222"/>
<path d="M65.2426 51.4454C65.3544 52.9139 66.6356 54.0136 68.1041 53.9018C69.5726 53.7899 70.6723 52.5088 70.5605 51.0403C70.4486 49.5718 69.1675 48.472 67.699 48.5839C66.2305 48.6957 65.1307 49.9769 65.2426 51.4454ZM143.854 4.2362C144.06 4.05268 144.079 3.73664 143.895 3.5303L140.904 0.167732C140.721 -0.0386122 140.405 -0.0571209 140.199 0.126391C139.992 0.309904 139.974 0.625945 140.157 0.832289L142.815 3.82124L139.827 6.47947C139.62 6.66298 139.602 6.97902 139.785 7.18536C139.969 7.39171 140.285 7.41022 140.491 7.2267L143.854 4.2362ZM67.9015 51.2428L68.3946 51.3257C68.5514 50.3936 68.7575 49.4108 69.0161 48.3862L68.5313 48.2639L68.0466 48.1415C67.7816 49.1908 67.5699 50.1999 67.4085 51.1599L67.9015 51.2428ZM70.4227 42.4544L70.8875 42.6388C71.5924 40.8614 72.4375 39.0227 73.4343 37.1563L72.9932 36.9208L72.5522 36.6852C71.5376 38.5851 70.6767 40.458 69.9579 42.2701L70.4227 42.4544ZM76.1568 31.6933L76.5702 31.9745C77.6691 30.3589 78.8867 28.7458 80.23 27.1561L79.8481 26.8334L79.4662 26.5107C78.0999 28.1275 76.8614 29.7684 75.7433 31.4121L76.1568 31.6933ZM84.0265 22.3775L84.3731 22.7378C85.7903 21.3745 87.3132 20.0456 88.947 18.7659L88.6387 18.3723L88.3304 17.9786C86.6694 19.2795 85.121 20.6308 83.6798 22.0172L84.0265 22.3775ZM93.6275 14.8513L93.8953 15.2735C95.555 14.2207 97.3082 13.2189 99.1586 12.279L98.9322 11.8332L98.7057 11.3874C96.8268 12.3418 95.046 13.3593 93.3597 14.4291L93.6275 14.8513ZM104.494 9.32055L104.679 9.78496C106.506 9.05604 108.414 8.385 110.406 7.77967L110.261 7.30127L110.116 6.82287C108.097 7.43632 106.162 8.11669 104.308 8.85615L104.494 9.32055ZM116.171 5.75863L116.279 6.24693C118.198 5.82425 120.186 5.45965 122.246 5.15872L122.173 4.66398L122.101 4.16923C120.019 4.47356 118.007 4.84242 116.064 5.27033L116.171 5.75863ZM128.245 3.98166L128.285 4.48007C130.252 4.32286 132.277 4.22103 134.363 4.17862L134.353 3.67872L134.343 3.17882C132.238 3.22163 130.192 3.32443 128.205 3.48325L128.245 3.98166ZM140.446 3.72095L140.429 4.22068C141.437 4.25428 142.458 4.30117 143.492 4.36172L143.521 3.86258L143.551 3.36343C142.508 3.30239 141.479 3.25512 140.462 3.22123L140.446 3.72095Z" fill="#262626"/>
</svg>
