<svg width="23" height="27" viewBox="0 0 23 27" fill="none" xmlns="http://www.w3.org/2000/svg">
<path d="M13.9356 0.000308576C13.553 -0.00746519 13.173 0.131622 12.8868 0.419672L1.66064 11.7378C0.570216 12.8382 0 14.3566 0 16.0353C0 17.714 0.570426 19.2807 1.66064 20.3789L6.49382 25.2659C7.58425 26.3628 9.09131 26.8929 10.7553 26.8929C12.4193 26.8929 13.9268 26.3191 15.0193 25.2186L17.9194 22.2637C18.4908 21.6876 18.4709 20.734 17.8759 20.1344C17.2809 19.5347 16.335 19.515 15.7646 20.0909L12.7658 23.0121C12.2481 23.5355 11.5308 23.7542 10.7385 23.7542C9.94621 23.7542 9.22998 23.5357 8.71019 23.0121L3.89381 18.1233C3.37486 17.6001 3.11434 16.8345 3.11434 16.0355C3.11434 15.2365 3.37486 14.515 3.89381 13.9916L8.6959 9.08321C9.21485 8.56006 9.94663 8.36067 10.7377 8.36067C11.5289 8.36067 12.2462 8.57876 12.7649 9.10233L15.7633 12.0227C16.3348 12.5997 17.2809 12.5795 17.8759 11.9801C18.4709 11.3792 18.4908 10.4258 17.9194 9.84967L15.0193 6.89606C14.2922 6.17226 13.3711 5.64553 12.3391 5.4058L12.3008 5.3974L15.0426 2.59254C15.6166 2.01686 15.5965 1.06216 15.0013 0.462532C14.7196 0.175831 14.3374 0.0100482 13.9356 0.000308576ZM9.72203 14.5765C8.94214 14.5765 8.31057 15.2531 8.31057 16.0846C8.31057 16.9162 8.94109 17.5932 9.72203 17.5932H20.9999C21.7798 17.5942 22.4118 16.9173 22.4118 16.0846C22.4118 15.2531 21.7798 14.5765 20.9999 14.5765H9.72203Z" fill="#202020"/>
</svg>
