<svg width="27" height="27" viewBox="0 0 27 27" fill="none" xmlns="http://www.w3.org/2000/svg">
<path d="M24.1993 0.000183802H1.93226C1.68196 -0.00329246 1.43342 0.042572 1.20085 0.135158C0.968274 0.227744 0.756215 0.365238 0.576783 0.539787C0.397351 0.714336 0.254061 0.922522 0.155096 1.15246C0.0561307 1.38239 0.00342864 1.62956 0 1.87987V24.4098C0.00342864 24.6601 0.0561307 24.9073 0.155096 25.1372C0.254061 25.3671 0.397351 25.5753 0.576783 25.7499C0.756215 25.9244 0.968274 26.0619 1.20085 26.1545C1.43342 26.2471 1.68196 26.2929 1.93226 26.2895H24.1993C24.4496 26.2929 24.6981 26.2471 24.9307 26.1545C25.1633 26.0619 25.3753 25.9244 25.5548 25.7499C25.7342 25.5753 25.8775 25.3671 25.9764 25.1372C26.0754 24.9073 26.1281 24.6601 26.1315 24.4098V1.87987C26.1281 1.62956 26.0754 1.38239 25.9764 1.15246C25.8775 0.922522 25.7342 0.714336 25.5548 0.539787C25.3753 0.365238 25.1633 0.227744 24.9307 0.135158C24.6981 0.042572 24.4496 -0.00329246 24.1993 0.000183802ZM7.92622 22.0043H3.98283V10.1741H7.92622V22.0043ZM5.95452 8.51791C5.41068 8.51791 4.88911 8.30187 4.50455 7.91731C4.12 7.53276 3.90396 7.01119 3.90396 6.46735C3.90396 5.9235 4.12 5.40193 4.50455 5.01738C4.88911 4.63282 5.41068 4.41678 5.95452 4.41678C6.2433 4.38403 6.53575 4.41265 6.8127 4.50075C7.08966 4.58886 7.34488 4.73447 7.56166 4.92806C7.77844 5.12164 7.95188 5.35883 8.07064 5.62409C8.18939 5.88936 8.25078 6.17671 8.25078 6.46735C8.25078 6.75798 8.18939 7.04533 8.07064 7.3106C7.95188 7.57586 7.77844 7.81305 7.56166 8.00663C7.34488 8.20022 7.08966 8.34583 6.8127 8.43394C6.53575 8.52204 6.2433 8.55066 5.95452 8.51791ZM22.1487 22.0043H18.2053V15.6554C18.2053 14.0649 17.6401 13.0265 16.2073 13.0265C15.7639 13.0298 15.3322 13.1688 14.9702 13.425C14.6083 13.6812 14.3335 14.0422 14.1831 14.4593C14.0802 14.7682 14.0356 15.0936 14.0516 15.4188V21.9912H10.1082V10.161H14.0516V11.8304C14.4098 11.2088 14.9309 10.6967 15.5586 10.3492C16.1863 10.0018 16.8969 9.83218 17.6138 9.85866C20.2427 9.85866 22.1487 11.5543 22.1487 15.1954V22.0043Z" fill="#202020"/>
</svg>
