<svg width="180" height="25" viewBox="0 0 180 25" fill="none" xmlns="http://www.w3.org/2000/svg">
<path d="M0 0.0319996H16.512C20.5227 0.0319996 23.5413 0.672 25.568 1.952C27.616 3.232 28.64 5.30133 28.64 8.16C28.64 9.52533 28.32 10.752 27.68 11.84C27.0613 12.9067 26.208 13.8133 25.12 14.56C24.032 15.3067 22.752 15.8827 21.28 16.288C19.808 16.672 18.2187 16.864 16.512 16.864H5.12V24.192H0V0.0319996ZM16.512 11.744C17.088 11.744 17.7707 11.6907 18.56 11.584C19.3707 11.4773 20.1387 11.2853 20.864 11.008C21.6107 10.7307 22.24 10.3467 22.752 9.856C23.264 9.36533 23.52 8.736 23.52 7.968C23.52 7.456 23.3813 7.02933 23.104 6.688C22.848 6.34667 22.5067 6.08 22.08 5.888C21.6533 5.67467 21.1733 5.51467 20.64 5.408C20.128 5.30133 19.6053 5.23733 19.072 5.216C18.56 5.17333 18.08 5.152 17.632 5.152C17.184 5.152 16.8107 5.152 16.512 5.152H5.12V11.744H16.512Z" fill="#202020"/>
<path d="M52.2673 24.224L46.0913 16.896H35.4352V24.192H30.3153V0.0319996H46.8273C50.8379 0.0319996 53.8566 0.672 55.8833 1.952C57.9313 3.232 58.9552 5.30133 58.9552 8.16C58.9552 9.14133 58.7846 10.048 58.4433 10.88C58.1233 11.712 57.6646 12.4693 57.0672 13.152C56.4699 13.8133 55.7553 14.3893 54.9233 14.88C54.0913 15.3707 53.1739 15.776 52.1712 16.096L58.9552 24.224H52.2673ZM46.8273 11.776C47.4033 11.776 48.0859 11.7227 48.8753 11.616C49.6859 11.5093 50.4539 11.3173 51.1792 11.04C51.9259 10.7413 52.5552 10.3467 53.0672 9.856C53.5793 9.36533 53.8353 8.736 53.8353 7.968C53.8353 7.456 53.6966 7.02933 53.4193 6.688C53.1632 6.34667 52.8219 6.08 52.3953 5.888C51.9686 5.67467 51.4886 5.51467 50.9552 5.408C50.4432 5.30133 49.9206 5.23733 49.3872 5.216C48.8752 5.17333 48.3952 5.152 47.9473 5.152C47.4992 5.152 47.1259 5.152 46.8273 5.152H35.4352V11.776H46.8273Z" fill="#202020"/>
<path d="M66.4122 0V24.224H61.2603V0H66.4122Z" fill="#202020"/>
<path d="M69.098 0.0319996H94.94C96.412 0.0319996 97.8627 0.0639998 99.292 0.128C100.721 0.170666 102.076 0.32 103.356 0.576C104.636 0.810666 105.809 1.184 106.876 1.696C107.964 2.208 108.903 2.912 109.692 3.808C110.481 4.704 111.1 5.83467 111.548 7.2C111.996 8.544 112.22 10.1973 112.22 12.16C112.22 14.1013 111.996 15.7547 111.548 17.12C111.1 18.464 110.481 19.5947 109.692 20.512C108.903 21.408 107.964 22.1227 106.876 22.656C105.809 23.168 104.636 23.552 103.356 23.808C102.076 24.064 100.721 24.224 99.292 24.288C97.8627 24.352 96.412 24.384 94.94 24.384H69.098V0.0319996ZM95.836 19.264C97.052 19.264 98.3213 19.2107 99.644 19.104C100.967 18.9973 102.183 18.7093 103.292 18.24C104.401 17.7707 105.308 17.0667 106.012 16.128C106.737 15.168 107.1 13.8453 107.1 12.16C107.1 10.496 106.865 9.20533 106.396 8.288C105.927 7.34933 105.287 6.64533 104.476 6.176C103.665 5.70667 102.695 5.41867 101.564 5.312C100.455 5.20533 99.2387 5.152 97.916 5.152H74.218V19.264H95.836Z" fill="#202020"/>
<path d="M114.592 0.0319996H119.712V8H140.192V0.0319996H145.312V24.192H140.192V13.152H119.712V24.192H114.592V0.0319996Z" fill="#202020"/>
<path d="M153.208 0.0319996V15.04C153.208 15.616 153.4 16.128 153.784 16.576C154.189 17.0027 154.701 17.376 155.32 17.696C155.96 17.9947 156.664 18.2507 157.432 18.464C158.221 18.656 158.989 18.816 159.736 18.944C160.504 19.0507 161.218 19.1253 161.88 19.168C162.562 19.2107 163.106 19.232 163.512 19.232C163.938 19.232 164.493 19.2107 165.176 19.168C165.858 19.1253 166.594 19.0507 167.384 18.944C168.173 18.8373 168.962 18.688 169.752 18.496C170.562 18.304 171.298 18.0587 171.96 17.76C172.621 17.44 173.154 17.056 173.56 16.608C173.965 16.16 174.168 15.6373 174.168 15.04V0.0319996H179.288V16.416C179.288 17.4827 179.053 18.4213 178.584 19.232C178.136 20.0427 177.517 20.7467 176.728 21.344C175.938 21.92 175.021 22.4107 173.976 22.816C172.93 23.2 171.821 23.5093 170.648 23.744C169.474 23.9573 168.269 24.1173 167.032 24.224C165.816 24.3093 164.632 24.352 163.48 24.352C162.477 24.352 161.4 24.3093 160.248 24.224C159.096 24.1173 157.944 23.9467 156.792 23.712C155.661 23.456 154.562 23.136 153.496 22.752C152.45 22.3467 151.522 21.856 150.712 21.28C149.922 20.6827 149.282 19.9893 148.792 19.2C148.322 18.3893 148.088 17.4613 148.088 16.416V0.0319996H153.208Z" fill="#202020"/>
</svg>
