<svg width="1920" height="361" viewBox="0 0 1920 361" fill="none" xmlns="http://www.w3.org/2000/svg">
<path d="M29.8636 2.352L30.7876 61.32H31.0396L64.8076 2.352H79.1716L78.6676 4.116C72.9556 4.116 71.5276 5.208 70.3516 10.164L57.7516 61.74C56.4916 66.696 56.4916 67.788 64.9756 67.788L64.3876 69.552H43.1356L43.7236 67.788C50.0236 67.788 51.4516 66.696 52.6276 61.74L65.7316 7.224H65.3956L28.3516 71.232H25.9996L24.7396 8.064H24.4876L8.0236 61.824C6.5956 66.78 6.3436 67.788 13.8196 67.788L13.3156 69.552H-4.8284L-4.2404 67.788C2.0596 67.788 3.6556 66.78 5.1676 61.824L20.9596 10.08C22.4716 5.124 22.7236 4.116 15.1636 4.116L15.6676 2.352H29.8636ZM62.2745 88.788C59.7545 88.788 58.5785 87.612 58.5785 86.184C58.5785 84.084 60.4265 82.404 62.6945 82.404C65.3825 82.404 66.2225 84.084 68.7425 84.084C72.1025 84.084 76.5545 79.044 80.5025 73.248C82.0985 55.776 82.3505 42.336 82.2665 35.364C82.2665 29.316 81.6785 28.056 80.2505 28.056C78.2345 28.056 75.5465 32.76 73.0265 39.144H71.3465C73.9505 32.088 77.5625 24.528 82.0145 24.528C85.6265 24.528 86.8025 27.384 86.8865 35.028C86.8865 42.084 86.4665 54.348 85.0385 68.124C95.2865 54.852 100.242 43.344 100.242 35.532C100.242 31.164 98.0585 28.98 98.0585 26.628C98.0585 25.452 98.8145 24.192 100.41 24.192C102.594 24.192 103.854 26.628 103.854 32.172C103.854 41.16 98.3105 53.004 89.4905 65.604C80.4185 78.624 72.1025 88.788 62.2745 88.788ZM127.951 70.644C121.315 70.644 116.863 66.192 116.863 62.076C116.863 60.228 117.955 59.22 119.383 59.22C120.727 59.22 121.063 60.228 121.735 62.328C122.911 65.94 124.927 68.208 129.043 68.208C133.579 68.208 135.847 64.764 135.847 60.228C135.847 57.288 134.755 54.936 132.991 52.08L130.471 47.712C127.363 42.588 125.851 39.732 125.851 36.036C125.851 29.064 131.479 24.108 138.367 24.108C144.079 24.108 147.355 28.056 147.355 30.744C147.355 32.508 146.095 33.516 144.835 33.516C143.491 33.516 142.987 32.34 142.483 30.828C141.559 28.392 140.299 26.46 136.771 26.46C132.823 26.46 130.135 29.064 130.135 33.684C130.135 36.456 131.311 39.48 133.243 42.672L135.679 46.956C138.871 52.5 140.131 54.6 140.131 58.128C140.131 65.52 134.923 70.644 127.951 70.644ZM155.759 66.948C161.051 66.948 166.175 60.648 170.207 51.912H171.887C167.603 62.832 161.135 70.644 153.743 70.644C148.199 70.644 144.839 66.36 144.839 59.22C144.839 45.78 156.347 24.276 168.023 24.276C171.971 24.276 174.407 26.964 174.407 30.912C174.407 39.648 162.983 48.804 151.055 50.736C150.299 53.76 149.879 56.7 149.879 59.052C149.879 64.176 152.231 66.948 155.759 66.948ZM167.267 26.88C160.799 26.88 154.583 38.052 151.643 48.384C161.471 46.2 170.291 39.228 170.291 30.912C170.291 28.476 169.619 26.88 167.267 26.88ZM197.306 -3.8147e-06L198.314 0.335997L178.826 60.48C178.406 61.74 177.902 63.672 177.902 64.764C177.902 66.024 178.238 66.864 179.582 66.864C183.026 66.864 186.806 61.068 189.746 54.684H191.51C188.57 61.908 183.194 70.056 177.482 70.056C174.206 70.056 173.03 68.208 173.03 65.688C173.03 64.176 173.618 62.244 174.206 60.396L190.67 9.24C192.014 5.376 191.174 4.032 184.958 4.032L185.462 2.352C193.526 2.352 195.626 1.848 197.306 -3.8147e-06ZM225.847 0.671998C229.291 0.671998 230.635 1.428 230.635 3.192C230.635 4.704 229.543 6.384 227.527 6.384C225.091 6.384 222.739 3.864 219.967 3.864C218.203 3.864 217.027 4.704 215.599 9.24C214.423 12.936 213.667 16.968 212.575 20.664L211.147 25.368H220.807L220.051 27.552H210.475L199.891 62.412C195.523 76.608 187.627 88.032 176.287 88.032C172.675 88.032 171.919 86.856 171.919 85.512C171.919 83.412 173.851 81.732 176.119 81.732C178.639 81.732 179.983 83.58 182.503 83.58C187.543 83.58 190.231 77.868 194.767 62.832L205.519 27.552H197.791L198.463 25.368H206.191L207.619 20.58C210.979 9.408 214.675 0.671998 225.847 0.671998Z" fill="#FE0000"/>
<path d="M-0.712402 99.8948H176.181C219.147 99.8948 251.486 106.751 273.198 120.464C295.138 134.176 306.108 156.345 306.108 186.97C306.108 201.597 302.68 214.738 295.824 226.394C289.196 237.821 280.054 247.534 268.399 255.533C256.743 263.533 243.03 269.703 227.261 274.046C211.491 278.159 194.464 280.216 176.181 280.216H54.1382V358.721H-0.712402V99.8948ZM176.181 225.366C182.352 225.366 189.665 224.794 198.121 223.652C206.806 222.509 215.033 220.452 222.804 217.481C230.803 214.51 237.545 210.396 243.03 205.139C248.515 199.883 251.258 193.141 251.258 184.913C251.258 179.428 249.772 174.857 246.801 171.201C244.059 167.544 240.402 164.687 235.831 162.63C231.26 160.345 226.118 158.631 220.404 157.488C214.919 156.345 209.32 155.66 203.606 155.431C198.121 154.974 192.979 154.745 188.179 154.745C183.38 154.745 179.381 154.745 176.181 154.745H54.1382V225.366H176.181Z" fill="#202020"/>
<path d="M559.227 359.064L493.064 280.559H378.906V358.721H324.055V99.8948H500.949C543.915 99.8948 576.254 106.751 597.966 120.464C619.906 134.176 630.876 156.345 630.876 186.97C630.876 197.483 629.048 207.196 625.391 216.11C621.963 225.023 617.049 233.136 610.65 240.45C604.251 247.534 596.594 253.705 587.681 258.962C578.768 264.218 568.941 268.561 558.199 271.989L630.876 359.064H559.227ZM500.949 225.708C507.119 225.708 514.433 225.137 522.889 223.994C531.574 222.852 539.801 220.795 547.572 217.824C555.571 214.624 562.313 210.396 567.798 205.139C573.283 199.883 576.025 193.141 576.025 184.913C576.025 179.428 574.54 174.857 571.569 171.201C568.826 167.544 565.17 164.687 560.599 162.63C556.028 160.345 550.886 158.631 545.172 157.488C539.687 156.345 534.088 155.66 528.374 155.431C522.889 154.974 517.747 154.745 512.947 154.745C508.148 154.745 504.148 154.745 500.949 154.745H378.906V225.708H500.949Z" fill="#202020"/>
<path d="M710.763 99.552V359.064H655.57V99.552H710.763Z" fill="#202020"/>
<path d="M739.535 99.8948H1016.38C1032.15 99.8948 1047.69 100.238 1063 100.923C1078.32 101.38 1092.83 102.98 1106.54 105.723C1120.25 108.237 1132.82 112.236 1144.25 117.721C1155.91 123.206 1165.96 130.748 1174.42 140.347C1182.88 149.946 1189.5 162.059 1194.3 176.686C1199.1 191.084 1201.5 208.796 1201.5 229.822C1201.5 250.62 1199.1 268.332 1194.3 282.959C1189.5 297.357 1182.88 309.47 1174.42 319.297C1165.96 328.896 1155.91 336.552 1144.25 342.266C1132.82 347.751 1120.25 351.865 1106.54 354.607C1092.83 357.35 1078.32 359.064 1063 359.75C1047.69 360.435 1032.15 360.778 1016.38 360.778H739.535V99.8948ZM1025.98 305.928C1039.01 305.928 1052.61 305.356 1066.78 304.213C1080.95 303.071 1093.97 299.985 1105.86 294.957C1117.74 289.929 1127.45 282.387 1135 272.331C1142.77 262.047 1146.65 247.877 1146.65 229.822C1146.65 211.996 1144.14 198.169 1139.11 188.341C1134.08 178.286 1127.23 170.744 1118.54 165.716C1109.86 160.688 1099.46 157.602 1087.34 156.46C1075.46 155.317 1062.43 154.745 1048.26 154.745H794.386V305.928H1025.98Z" fill="#202020"/>
<path d="M1226.92 99.8948H1281.77V185.256H1501.17V99.8948H1556.02V358.721H1501.17V240.45H1281.77V358.721H1226.92V99.8948Z" fill="#202020"/>
<path d="M1640.6 99.8948V260.676C1640.6 266.846 1642.66 272.331 1646.78 277.131C1651.12 281.702 1656.6 285.701 1663.23 289.13C1670.09 292.329 1677.63 295.072 1685.86 297.357C1694.31 299.414 1702.54 301.128 1710.54 302.499C1718.77 303.642 1726.42 304.442 1733.51 304.899C1740.82 305.356 1746.65 305.585 1750.99 305.585C1755.56 305.585 1761.5 305.356 1768.82 304.899C1776.13 304.442 1784.02 303.642 1792.47 302.499C1800.93 301.357 1809.38 299.757 1817.84 297.7C1826.53 295.643 1834.41 293.015 1841.49 289.815C1848.58 286.387 1854.29 282.273 1858.64 277.474C1862.98 272.674 1865.15 267.075 1865.15 260.676V99.8948H1920V275.417C1920 286.844 1917.49 296.9 1912.46 305.585C1907.66 314.269 1901.03 321.811 1892.57 328.211C1884.12 334.381 1874.29 339.638 1863.09 343.98C1851.89 348.094 1840.01 351.408 1827.44 353.922C1814.87 356.207 1801.96 357.921 1788.7 359.064C1775.67 359.978 1762.99 360.435 1750.65 360.435C1739.91 360.435 1728.37 359.978 1716.02 359.064C1703.68 357.921 1691.34 356.093 1679 353.579C1666.89 350.836 1655.12 347.408 1643.69 343.295C1632.49 338.952 1622.55 333.696 1613.86 327.525C1605.41 321.126 1598.55 313.698 1593.3 305.242C1588.27 296.557 1585.75 286.616 1585.75 275.417V99.8948H1640.6Z" fill="#202020"/>
</svg>
