<svg width="26" height="26" viewBox="0 0 26 26" fill="none" xmlns="http://www.w3.org/2000/svg">
<g opacity="0.42" clip-path="url(#clip0_715_99)">
<path d="M6.4549 18.2888V22.5921" stroke="#262626" stroke-width="1.61372" stroke-linecap="round" stroke-linejoin="round"/>
<path d="M4.30328 20.4404H8.60653" stroke="#262626" stroke-width="1.61372" stroke-linecap="round" stroke-linejoin="round"/>
<path d="M18.2888 3.22742V7.53067" stroke="#262626" stroke-width="1.61372" stroke-linecap="round" stroke-linejoin="round"/>
<path d="M16.1372 5.37915H20.4405" stroke="#262626" stroke-width="1.61372" stroke-linecap="round" stroke-linejoin="round"/>
<path d="M6.9928 5.37915C6.9928 7.4587 8.6786 9.14449 10.7581 9.14449" stroke="#262626" stroke-width="1.61372" stroke-linecap="round" stroke-linejoin="round"/>
<path d="M10.7581 9.14441C8.6786 9.14441 6.9928 10.8302 6.9928 12.9098" stroke="#262626" stroke-width="1.61372" stroke-linecap="round" stroke-linejoin="round"/>
<path d="M6.99282 12.9098C6.99282 10.8302 5.30702 9.14441 3.22748 9.14441" stroke="#262626" stroke-width="1.61372" stroke-linecap="round" stroke-linejoin="round"/>
<path d="M3.22748 9.14449C5.30702 9.14449 6.99282 7.4587 6.99282 5.37915" stroke="#262626" stroke-width="1.61372" stroke-linecap="round" stroke-linejoin="round"/>
<path d="M12.4896 16.9742C15.2791 16.9742 17.5405 14.7128 17.5405 11.9232" stroke="#262626" stroke-width="1.61372" stroke-linecap="round" stroke-linejoin="round"/>
<path d="M17.5408 11.9232C17.5408 14.7128 19.8022 16.9742 22.5918 16.9742" stroke="#262626" stroke-width="1.61372" stroke-linecap="round" stroke-linejoin="round"/>
<path d="M22.5918 16.9742C19.8022 16.9742 17.5408 19.2356 17.5408 22.0252" stroke="#262626" stroke-width="1.61372" stroke-linecap="round" stroke-linejoin="round"/>
<path d="M17.5415 22.0252C17.5415 19.2356 15.2802 16.9742 12.4906 16.9742" stroke="#262626" stroke-width="1.61372" stroke-linecap="round" stroke-linejoin="round"/>
</g>
<defs>
<clipPath id="clip0_715_99">
<rect width="25.8195" height="25.8195" fill="white"/>
</clipPath>
</defs>
</svg>
