<svg width="35" height="36" viewBox="0 0 35 36" fill="none" xmlns="http://www.w3.org/2000/svg">
<path d="M32.412 0.000246181H2.58803C2.25278 -0.00440984 1.9199 0.0570199 1.60839 0.181027C1.29688 0.305035 1.01286 0.489191 0.772531 0.722979C0.532204 0.956766 0.340284 1.23561 0.207732 1.54357C0.0751803 1.85154 0.00459224 2.1826 0 2.51785V32.6939C0.00459224 33.0292 0.0751803 33.3602 0.207732 33.6682C0.340284 33.9762 0.532204 34.255 0.772531 34.4888C1.01286 34.7226 1.29688 34.9067 1.60839 35.0307C1.9199 35.1547 2.25278 35.2162 2.58803 35.2115H32.412C32.7472 35.2162 33.0801 35.1547 33.3916 35.0307C33.7031 34.9067 33.9871 34.7226 34.2275 34.4888C34.4678 34.255 34.6597 33.9762 34.7923 33.6682C34.9248 33.3602 34.9954 33.0292 35 32.6939V2.51785C34.9954 2.1826 34.9248 1.85154 34.7923 1.54357C34.6597 1.23561 34.4678 0.956766 34.2275 0.722979C33.9871 0.489191 33.7031 0.305035 33.3916 0.181027C33.0801 0.0570199 32.7472 -0.00440984 32.412 0.000246181ZM10.6162 29.4721H5.33451V13.627H10.6162V29.4721ZM7.97535 11.4087C7.24694 11.4087 6.54836 11.1193 6.0333 10.6043C5.51823 10.0892 5.22887 9.39063 5.22887 8.66222C5.22887 7.93381 5.51823 7.23523 6.0333 6.72016C6.54836 6.2051 7.24694 5.91574 7.97535 5.91574C8.36214 5.87187 8.75383 5.9102 9.12478 6.02821C9.49573 6.14622 9.83757 6.34125 10.1279 6.60053C10.4183 6.85981 10.6506 7.1775 10.8096 7.53278C10.9687 7.88807 11.0509 8.27295 11.0509 8.66222C11.0509 9.05149 10.9687 9.43636 10.8096 9.79165C10.6506 10.1469 10.4183 10.4646 10.1279 10.7239C9.83757 10.9832 9.49573 11.1782 9.12478 11.2962C8.75383 11.4142 8.36214 11.4526 7.97535 11.4087ZM29.6655 29.4721H24.3838V20.9686C24.3838 18.8383 23.6268 17.4474 21.7077 17.4474C21.1138 17.4518 20.5355 17.6381 20.0508 17.9812C19.566 18.3243 19.198 18.8078 18.9965 19.3664C18.8587 19.7802 18.799 20.216 18.8204 20.6517V29.4545H13.5387V13.6094H18.8204V15.8453C19.3002 15.0128 19.9981 14.3269 20.8388 13.8615C21.6795 13.3962 22.6313 13.169 23.5915 13.2045C27.1127 13.2045 29.6655 15.4756 29.6655 20.3524V29.4721Z" fill="#ECECEC"/>
</svg>
