<svg width="35" height="35" viewBox="0 0 35 35" fill="none" xmlns="http://www.w3.org/2000/svg">
<path d="M17.5002 0C15.2021 0 12.9264 0.452656 10.8032 1.33212C8.67995 2.21159 6.75074 3.50065 5.12569 5.12569C1.84377 8.40762 0 12.8589 0 17.5002C0 25.2353 5.02256 31.7979 11.9701 34.1254C12.8452 34.2654 13.1252 33.7229 13.1252 33.2504V30.2929C8.2776 31.3429 7.24509 27.9478 7.24509 27.9478C6.44008 25.9178 5.30257 25.3753 5.30257 25.3753C3.71005 24.2903 5.42507 24.3253 5.42507 24.3253C7.17509 24.4478 8.1026 26.1278 8.1026 26.1278C9.62512 28.7878 12.1976 28.0003 13.1952 27.5803C13.3527 26.4428 13.8077 25.6728 14.2977 25.2353C10.4126 24.7978 6.33508 23.2928 6.33508 16.6252C6.33508 14.6827 7.00009 13.1252 8.1376 11.8826C7.9626 11.4451 7.35009 9.62512 8.3126 7.26259C8.3126 7.26259 9.78262 6.79008 13.1252 9.04761C14.5077 8.6626 16.0127 8.4701 17.5002 8.4701C18.9877 8.4701 20.4927 8.6626 21.8753 9.04761C25.2178 6.79008 26.6878 7.26259 26.6878 7.26259C27.6503 9.62512 27.0378 11.4451 26.8628 11.8826C28.0003 13.1252 28.6653 14.6827 28.6653 16.6252C28.6653 23.3103 24.5703 24.7803 20.6678 25.2178C21.2978 25.7603 21.8753 26.8278 21.8753 28.4553V33.2504C21.8753 33.7229 22.1553 34.2829 23.0478 34.1254C29.9954 31.7804 35.0004 25.2353 35.0004 17.5002C35.0004 15.2021 34.5478 12.9264 33.6683 10.8032C32.7888 8.67995 31.4998 6.75074 29.8747 5.12569C28.2497 3.50065 26.3205 2.21159 24.1973 1.33212C22.074 0.452656 19.7984 0 17.5002 0Z" fill="#ECECEC"/>
</svg>
