<svg width="35" height="42" viewBox="0 0 35 42" fill="none" xmlns="http://www.w3.org/2000/svg">
<path d="M21.763 0.000481897C21.1655 -0.0116582 20.5719 0.205552 20.1251 0.655393L2.5934 18.3308C0.890495 20.0491 0 22.4204 0 25.042C0 27.6636 0.890824 30.1103 2.5934 31.8253L10.1413 39.4572C11.8442 41.1703 14.1977 41.9981 16.7964 41.9981C19.395 41.9981 21.7492 41.102 23.4554 39.3834L27.9843 34.7688C28.8768 33.8692 28.8456 32.3799 27.9164 31.4434C26.9872 30.507 25.51 30.4761 24.6192 31.3755L19.9361 35.9376C19.1276 36.7549 18.0074 37.0965 16.7701 37.0965C15.5328 37.0965 14.4143 36.7552 13.6025 35.9376L6.08089 28.3027C5.27046 27.4857 4.8636 26.2901 4.8636 25.0423C4.8636 23.7945 5.27046 22.6677 6.08089 21.8504L13.5802 14.1851C14.3907 13.3681 15.5335 13.0567 16.7688 13.0567C18.0045 13.0567 19.1246 13.3973 19.9348 14.2149L24.6172 18.7757C25.5097 19.6767 26.9872 19.6452 27.9164 18.7091C28.8456 17.7707 28.8768 16.2817 27.9843 15.382L23.4554 10.7694C22.3198 9.63909 20.8814 8.81651 19.2697 8.44214L19.21 8.42901L23.4918 4.04872C24.3882 3.1497 24.3567 1.65876 23.4272 0.722328C22.9873 0.274592 22.3904 0.0156921 21.763 0.000481897ZM15.1827 22.7639C13.9648 22.7639 12.9785 23.8204 12.9785 25.1191C12.9785 26.4177 13.9631 27.4749 15.1827 27.4749H32.7951C34.013 27.4766 35 26.4194 35 25.1191C35 23.8204 34.013 22.7639 32.7951 22.7639H15.1827Z" fill="#ECECEC"/>
</svg>
