<svg width="35" height="35" viewBox="0 0 35 35" fill="none" xmlns="http://www.w3.org/2000/svg">
<path d="M8.71191 15.4484V12.5676C8.71191 12.3971 8.71191 12.3289 8.93448 12.3289C10.8424 12.3289 12.3932 12.2158 13.1632 12.6699C13.935 13.1222 13.9673 13.7469 13.9799 13.9335C13.9924 14.1202 13.987 14.3876 13.6281 15.0392C13.2691 15.6907 11.6627 15.7033 10.5032 15.7033H8.96858C8.78012 15.7033 8.71191 15.6351 8.71191 15.4484ZM13.9996 18.4674C14.1774 18.6943 14.3043 18.9568 14.3717 19.237C14.4391 19.5173 14.4454 19.8088 14.3903 20.0917C14.3351 20.3747 14.2197 20.6424 14.052 20.8769C13.8843 21.1113 13.6681 21.3069 13.4181 21.4504C13.0509 21.6049 12.657 21.686 12.2586 21.6892H8.95063C8.78012 21.6892 8.71191 21.6892 8.71191 21.4684V18.0581C8.71191 17.8876 8.71191 17.8194 8.93448 17.8194H11.1332C12.4973 17.8194 13.3499 17.701 13.9996 18.4674Z" fill="#ECECEC"/>
<path d="M26.0059 16.8879C25.9144 16.6723 25.7757 16.48 25.5998 16.3253C25.4239 16.1705 25.2155 16.0574 24.99 15.9941C24.5392 15.8709 24.0674 15.8448 23.6058 15.9176C23.1441 15.9903 22.7032 16.1601 22.3121 16.4159C21.9223 16.8097 21.6704 17.3191 21.5941 17.8679C21.5941 18.06 21.5941 18.0959 21.8221 18.0959H26.0759C26.2859 18.0959 26.2859 18.0959 26.2679 17.8321C26.2478 17.5022 26.1597 17.1804 26.0059 16.8879ZM26.0059 16.8879C25.9144 16.6723 25.7739 16.48 25.598 16.3253C25.4221 16.1705 25.2155 16.0574 24.99 15.9941C24.5392 15.8709 24.0674 15.8448 23.6058 15.9176C23.1441 15.9903 22.7032 16.1601 22.3121 16.4159C21.9223 16.8097 21.6686 17.3191 21.5923 17.8679C21.5923 18.06 21.5923 18.0959 21.8203 18.0959H26.0759C26.2859 18.0959 26.2859 18.0959 26.2679 17.8321C26.2478 17.5022 26.1561 17.1804 26.0023 16.8879M28 0H7C5.14348 0 3.36301 0.737498 2.05025 2.05025C0.737498 3.36301 0 5.14348 0 7V28C0 29.8565 0.737498 31.637 2.05025 32.9497C3.36301 34.2625 5.14348 35 7 35H28C29.8565 35 31.637 34.2625 32.9497 32.9497C34.2625 31.637 35 29.8565 35 28V7C35 5.14348 34.2625 3.36301 32.9497 2.05025C31.637 0.737498 29.8565 0 28 0ZM21.14 11.1462C21.14 11.0079 21.14 10.9541 21.2979 10.9541H26.9679V12.4259C26.9679 12.4259 26.9733 12.53 26.88 12.53H21.3859C21.14 12.53 21.14 12.53 21.14 12.2859V11.1462ZM15.89 24.01C13.7362 25.1821 10.1159 24.71 5.82795 24.71V10.2021H12.67C14.42 10.2021 16.5021 10.64 17.0621 12.4941C17.3528 13.3039 17.3351 14.1925 17.0123 14.99C16.6895 15.7876 16.0842 16.4384 15.3121 16.8179C16.0238 17.0813 16.6452 17.5431 17.1027 18.1487C17.5602 18.7542 17.8347 19.4781 17.8936 20.2348C17.9525 20.9914 17.7934 21.7491 17.4352 22.4181C17.0769 23.0872 16.5345 23.6396 15.8721 24.01H15.89ZM28.9279 19.88H21.9279C21.7359 19.88 21.56 19.9841 21.5941 20.23C21.8041 21.2621 22.2762 22.3479 23.3459 22.5059C23.9108 22.674 24.5156 22.6482 25.0641 22.4325C25.6125 22.2168 26.073 21.8237 26.3721 21.3159C26.3721 21.3159 26.46 21.21 26.5121 21.21H28.7879C28.7879 21.21 28.9279 21.21 28.8921 21.3321C28.652 22.0117 28.2969 22.6449 27.842 23.2041C27.2338 23.7851 26.4998 24.2182 25.6971 24.4696C24.8943 24.721 24.0445 24.7841 23.2134 24.6539C22.3824 24.5237 21.5925 24.2037 20.9052 23.7188C20.2178 23.2339 19.6514 22.5972 19.25 21.8579C19.0031 21.365 18.8492 20.8308 18.7959 20.2821C18.4837 18.9029 18.7223 17.4563 19.4609 16.2504C20.1994 15.0445 21.3796 14.1746 22.75 13.8259C26.7221 12.9679 29.2421 15.6979 29.2421 19.5479C29.2479 19.5929 29.2434 19.6387 29.2288 19.6817C29.2142 19.7246 29.1899 19.7637 29.1578 19.7958C29.1257 19.8278 29.0867 19.8521 29.0437 19.8667C29.0007 19.8813 28.955 19.8859 28.91 19.88H28.9279ZM25.0079 15.9941C24.5576 15.8692 24.0854 15.8434 23.6241 15.9187C23.1628 15.9905 22.75 16.0785 22.33 16.4159C21.91 16.7515 21.6874 17.3187 21.6121 17.8679C21.6121 18.06 21.6121 18.0959 21.84 18.0959H26.0759C26.2859 18.0959 26.2859 18.0959 26.2679 17.8321C26.2478 17.5022 26.1597 17.1804 26.0059 16.8879C25.9144 16.6723 25.7757 16.48 25.5998 16.3253C25.4239 16.1705 25.2155 16.0574 24.99 15.9941H25.0079Z" fill="#ECECEC"/>
</svg>
