<svg width="69" height="80" viewBox="0 0 69 80" fill="none" xmlns="http://www.w3.org/2000/svg">
<path d="M31.8242 63.5033C26.5305 63.5033 23.163 60.2598 23.163 56.146C23.163 38.5413 69 35.0169 69 16.3211C69 4.91579 55.919 0 39.221 0C29.0637 0 17.579 1.89875 6.91286 5.29626V27.5996C22.6313 16.0367 40.0954 11.087 51.3447 11.087C58.4182 11.087 63.2178 13.0802 63.2178 16.6518C63.2178 31.3663 0 29.0347 0 60.8303C0 73.0176 8.29716 80 19.9704 80C37.6273 80 50.9827 62.6694 60.9743 41.544L62.9986 42.2782C57.7365 55.1879 46.8471 69.3433 44.7262 78.4427H67.4581V31.3668H62.2081C54.5876 48.092 43.4202 63.5033 31.8242 63.5033Z" fill="#202020"/>
</svg>
