<svg width="98" height="80" viewBox="0 0 98 80" fill="none" xmlns="http://www.w3.org/2000/svg">
<path d="M51.0831 44.9826C51.271 41.6997 52.8717 38.8025 55.2891 36.7506C57.8248 34.6322 61.0245 33.4838 64.3218 33.5087C67.7927 33.5087 70.9819 34.7398 73.3503 36.7506C75.7678 38.8025 77.3644 41.6997 77.5482 44.9785C77.7319 48.3559 76.3844 51.487 74.0159 53.8138C71.4047 56.3134 67.928 57.6939 64.3218 57.663C60.7127 57.696 57.2328 56.3154 54.6194 53.8138C52.251 51.487 50.8994 48.3559 51.0831 44.9826ZM30.0124 51.6183C30.0369 52.9068 30.4453 55.4019 31.0578 57.3552C32.3835 61.5562 34.6032 65.4169 37.5628 68.6691C40.7377 72.1821 44.6161 74.9805 48.9434 76.8806C53.6513 78.9658 58.7442 80.0286 63.8889 79.9994C69.0324 80.0052 74.1199 78.9259 78.8222 76.8314C83.1438 74.9088 87.0176 72.0992 90.1947 68.5829C93.1553 65.3243 95.3738 61.4565 96.6956 57.2485C97.9649 53.1722 98.3136 48.8627 97.7164 44.6338C97.1458 40.5818 95.7322 36.696 93.5676 33.2296C91.5622 30.0059 89.0013 27.1669 86.005 24.8458H86.0132L55.3953 1.22086L55.3136 1.1593C53.3046 -0.391894 49.9275 -0.383687 47.7184 1.16751C45.4847 2.73512 45.2315 5.33275 47.2161 6.97423L47.212 6.97834L59.977 17.414L21.0614 17.4551H21.0084C17.7906 17.4592 14.6994 19.5808 14.0869 22.2646C13.458 24.9935 15.6386 27.2588 18.987 27.2711V27.2793L38.7102 27.2383L3.51066 54.3924L3.37182 54.495C0.051953 57.0475 -1.01792 61.2989 1.07282 63.9868C3.19623 66.724 7.70847 66.7281 11.0651 64.0032L30.2738 48.2081C30.2738 48.2081 29.9879 50.342 30.0124 51.6183ZM79.3816 58.7628C75.4207 62.8173 69.8835 65.1153 63.8848 65.1235C57.8821 65.1399 52.3409 62.8583 48.3799 58.8121C46.5086 56.9259 45.0654 54.6552 44.1494 52.1559C43.3083 49.805 42.976 47.3008 43.1746 44.8106C43.3732 42.3203 44.0981 39.9013 45.3009 37.715C46.4969 35.5536 48.0954 33.6435 50.0092 32.0888C53.8558 28.9372 58.7519 27.2342 63.8767 27.2259C69.0055 27.2177 73.9016 28.9085 77.7523 32.0478C79.7124 33.6523 81.305 35.5523 82.4565 37.6575C83.6462 39.8157 84.3724 42.2007 84.5881 44.6584C84.8092 47.1776 84.476 49.7149 83.6121 52.0902C82.6994 54.5951 81.2535 56.8715 79.3816 58.7628Z" fill="#202020"/>
</svg>
