<svg width="70" height="80" viewBox="0 0 70 80" fill="none" xmlns="http://www.w3.org/2000/svg">
<path fill-rule="evenodd" clip-rule="evenodd" d="M32.1965 0.81922C33.0355 0.28405 34.0076 0 35 0C35.9924 0 36.9645 0.28405 37.8035 0.81922L67.5535 19.7964C68.3022 20.2739 68.9191 20.9349 69.3468 21.7179C69.7746 22.5009 69.9993 23.3804 70 24.2747V55.7253C69.9999 56.6202 69.7755 57.5004 69.3477 58.2841C68.9199 59.0678 68.3027 59.7293 67.5535 60.2072L37.8035 79.1808C36.9645 79.716 35.9924 80 35 80C34.0076 80 33.0355 79.716 32.1965 79.1808L2.4465 60.2072C1.69782 59.7296 1.08091 59.0686 0.653162 58.2856C0.225413 57.5026 0.000724358 56.6231 0 55.7289V24.2747C0.000133933 23.3798 0.224541 22.4996 0.652318 21.7159C1.08009 20.9322 1.69732 20.2707 2.4465 19.7928L32.1965 0.81922ZM38.2235 50.6426C40.4191 49.9843 42.3562 48.6497 43.764 46.8253L53.375 52.3746C50.7488 56.3284 46.934 59.3253 42.493 60.9231C38.0521 62.521 33.2203 62.6353 28.7101 61.2492C24.2 59.8631 20.2503 57.05 17.4437 53.2247C14.637 49.3994 13.122 44.7645 13.122 40.0035C13.122 35.2426 14.637 30.6077 17.4437 26.7824C20.2503 22.9571 24.2 20.1439 28.7101 18.7578C33.2203 17.3717 38.0521 17.486 42.493 19.0839C46.934 20.6818 50.7488 23.6787 53.375 27.6325L43.764 33.1818C42.5354 31.5863 40.8989 30.3597 39.0309 29.6341C37.163 28.9085 35.1343 28.7115 33.1637 29.0643C31.193 29.417 29.355 30.3062 27.8478 31.636C26.3406 32.9658 25.2213 34.6857 24.6106 36.6104C23.9999 38.5352 23.9208 40.5918 24.382 42.5585C24.8432 44.5253 25.8271 46.3276 27.2277 47.7714C28.6283 49.2151 30.3925 50.2455 32.3302 50.7515C34.2678 51.2574 36.3055 51.2198 38.2235 50.6426Z" fill="#202020"/>
</svg>
