<svg width="53" height="80" viewBox="0 0 53 80" fill="none" xmlns="http://www.w3.org/2000/svg">
<path d="M13.0054 0H25.9586V25.9266H13.0056C-4.0767 25.2583 -4.24922 0.701875 13.0054 0ZM13.0054 52.962H25.9586V27.0355H13.0056C-4.24907 27.7373 -4.0767 52.2937 13.0054 52.962ZM40.0202 0H27.0667V25.9266H40.0202C57.3323 24.9994 57.1165 0.529219 40.0202 0ZM25.9586 67.0344V54.0709H13.0056C2.4352 54.0709 -4.24907 66.4734 3.10235 75.3815C10.1114 84.2111 25.9588 79.809 25.9588 67.0344M53 39.9987C53 30.0362 42.1492 23.7761 33.5157 28.7573C24.8821 33.7386 24.882 46.2591 33.5157 51.2403C42.1494 56.2215 53 49.9612 53 39.9987Z" fill="#202020"/>
</svg>
