<svg width="80" height="80" viewBox="0 0 80 80" fill="none" xmlns="http://www.w3.org/2000/svg">
<path fill-rule="evenodd" clip-rule="evenodd" d="M40 80C62.1 80 80 62.1 80 40C80 17.9 62.1 0 40 0C17.9 0 0 17.9 0 40C0 62.1 17.9 80 40 80ZM3.33333 40C3.33333 19.7333 19.7333 3.33333 40 3.33333C60.2333 3.33333 76.6667 19.7333 76.6667 40C76.6667 56.2 66.1667 69.9333 51.5667 74.6667C49.7433 75.03 49.0767 73.8767 49.0767 72.9067L49.0933 70.86C49.11 68.9667 49.1367 66.1267 49.1367 62.8267C49.1367 59.36 47.9833 57.1933 46.6467 56.0267C54.8467 55.1167 63.4133 52.0267 63.4133 37.9267C63.4133 33.9267 62.0167 30.6267 59.6467 28.0933C60.01 27.1833 61.2867 23.4267 59.2833 18.3933C59.2833 18.3933 56.1833 17.4233 49.1833 22.16C46.1941 21.3558 43.1122 20.9478 40.0167 20.9467C36.9167 20.95 33.8167 21.36 30.85 22.16C23.85 17.4267 20.75 18.3933 20.75 18.3933C18.7433 23.4267 20.02 27.1933 20.3833 28.0933C17.9256 30.7745 16.5791 34.2897 16.6167 37.9267C16.6167 52.0267 25.1833 55.16 33.3167 56.0267C32.2833 56.9367 31.31 58.5767 31.0067 60.96C28.88 61.9333 23.6067 63.51 20.3067 57.9233C20.3067 57.9233 18.3633 54.39 14.64 54.1567C14.64 54.1567 11.04 54.1567 14.3967 56.4033C14.3967 56.4033 16.8267 57.4967 18.4633 61.7367C18.4633 61.7367 20.59 68.3033 30.7967 66.1033C30.7967 68.09 30.8233 70.0367 30.84 71.37L30.8567 72.9133C30.8567 73.8833 30.19 75.04 28.3667 74.6733C13.8 69.8067 3.26667 56.1067 3.26667 40.0067L3.33333 40Z" fill="#202020"/>
</svg>
