<svg width="77" height="80" viewBox="0 0 77 80" fill="none" xmlns="http://www.w3.org/2000/svg">
<path d="M13.279 14.0264C15.7773 16.0473 16.7099 15.8938 21.3986 15.5826L65.5991 12.9393C66.5402 12.9393 65.7574 12.0013 65.4451 11.8478L58.104 6.56116C56.6965 5.47398 54.8228 4.22479 51.2335 4.53603L8.43197 7.64833C6.87477 7.80182 6.56247 8.58202 7.18279 9.20449L13.279 14.0264ZM15.9313 24.2928V70.6363C15.9313 73.1304 17.1805 74.0598 19.9954 73.9064L68.568 71.1053C71.3787 70.9518 71.691 69.2379 71.691 67.2128V21.1805C71.691 19.1596 70.9124 18.0682 69.1926 18.2259L18.4297 21.1805C16.5559 21.334 15.9313 22.2676 15.9313 24.2928ZM63.8879 26.7784C64.1959 28.1768 63.8879 29.5794 62.4761 29.7372L60.1361 30.2019V64.416C58.104 65.5074 56.2302 66.1256 54.6688 66.1256C52.1704 66.1256 51.5458 65.3497 49.672 63.0176L34.361 39.0656V62.2416L39.208 63.3288C39.208 63.3288 39.208 66.1256 35.2979 66.1256L24.5216 66.7481C24.2093 66.1256 24.5216 64.5737 25.6168 64.2625L28.4274 63.4865V32.8452L24.5216 32.534C24.2093 31.1313 24.9922 29.1105 27.1782 28.9527L38.7374 28.1768L54.6688 52.4442V30.9778L50.6046 30.5131C50.2966 28.7992 51.5458 27.5586 53.1073 27.4008L63.8879 26.7784ZM4.83844 3.44885L49.3555 0.183059C54.8185 -0.285919 56.226 0.0295753 59.6655 2.51516L73.8728 12.4703C76.2171 14.1799 77 14.6446 77 16.512V71.1053C77 74.5288 75.7508 76.5497 71.3787 76.8609L19.6789 79.9732C16.3976 80.1267 14.8362 79.662 13.1164 77.4834L2.65237 63.9513C0.778598 61.4614 0 59.5983 0 57.4154V8.88899C0 6.09218 1.2449 3.76008 4.83844 3.44885Z" fill="#202020"/>
</svg>
