<svg width="80" height="80" viewBox="0 0 80 80" fill="none" xmlns="http://www.w3.org/2000/svg">
<path d="M33.7978 33.9199C33.8583 35.1345 33.4913 36.3318 32.7605 37.3038C32.0297 38.2757 30.9814 38.9608 29.7978 39.2399C27.7098 39.8566 25.532 40.1136 23.3578 39.9999C22.7978 39.9999 22.7578 39.6399 22.7578 39.2399V29.0399C22.7578 28.7599 23.0378 28.2799 23.1978 28.2799C25.486 28.0237 27.8014 28.1727 30.0378 28.7199C31.1633 29.0284 32.1497 29.7121 32.8335 30.6578C33.5173 31.6035 33.8575 32.7544 33.7978 33.9199Z" fill="#202020"/>
<path d="M60 0H20C14.6957 0 9.60859 2.10714 5.85786 5.85786C2.10714 9.60859 0 14.6957 0 20V60C0 65.3043 2.10714 70.3914 5.85786 74.1421C9.60859 77.8929 14.6957 80 20 80H60C65.3043 80 70.3914 77.8929 74.1421 74.1421C77.8929 70.3914 80 65.3043 80 60V20C80 14.6957 77.8929 9.60859 74.1421 5.85786C70.3914 2.10714 65.3043 0 60 0ZM36 44C33.9813 45.2821 31.6677 46.0258 29.28 46.16H23.92C22.8 46.16 22.8 46.16 22.8 47.24V56.52C22.8 57.32 22.56 57.56 21.76 57.56H16.48C15.72 57.56 15.52 57.28 15.52 56.56V22.84C15.52 22.04 15.52 21.8 16.52 21.8H29.04C31.3253 21.8619 33.5564 22.5092 35.52 23.68C37.2158 24.6355 38.6277 26.0239 39.6115 27.7035C40.5953 29.383 41.1159 31.2935 41.12 33.24C41.3514 35.3322 40.9948 37.4475 40.0904 39.3482C39.1859 41.249 37.7694 42.8599 36 44ZM59.68 57.2C56.2014 58.5553 52.3928 58.8203 48.76 57.96C47.6693 57.72 46.6027 57.4 45.56 57C45.3992 56.9246 45.2579 56.8132 45.1469 56.6745C45.0359 56.5358 44.9583 56.3734 44.92 56.2V50.16C46.2 50.64 47.4 51.2 48.64 51.6C50.7181 52.2642 52.9184 52.4555 55.08 52.16C55.512 52.08 55.9253 51.9467 56.32 51.76C56.5544 51.6573 56.7582 51.4957 56.9115 51.2907C57.0648 51.0858 57.1623 50.8446 57.1945 50.5907C57.2268 50.3369 57.1926 50.079 57.0954 49.8422C56.9982 49.6055 56.8413 49.398 56.64 49.24C55.725 48.6066 54.7463 48.0703 53.72 47.64C52.08 46.84 50.4 46.2 48.84 45.28C47.4315 44.5948 46.2815 43.4735 45.5609 42.0827C44.8403 40.692 44.5875 39.1059 44.84 37.56C45.0434 36.0722 45.6615 34.6717 46.6236 33.5187C47.5856 32.3657 48.8527 31.5067 50.28 31.04C52.8525 30.1701 55.5976 29.9368 58.28 30.36C59.56 30.36 60.8 30.84 62.08 31.08C62.76 31.08 63 31.64 62.96 32.32V37C62.96 37.88 62.76 37.96 61.96 37.64C59.4617 36.4833 56.7002 36.0139 53.96 36.28C53.5718 36.3252 53.1935 36.4332 52.84 36.6C52.6 36.6942 52.3889 36.8495 52.2274 37.0504C52.0659 37.2514 51.9596 37.491 51.9192 37.7456C51.8788 38.0002 51.9056 38.2609 51.9969 38.502C52.0883 38.7431 52.241 38.9561 52.44 39.12C53.5973 39.8907 54.8107 40.5573 56.08 41.12C57.6 41.88 59.2 42.48 60.68 43.32C62.023 43.9311 63.1354 44.9555 63.855 46.2436C64.5746 47.5316 64.8637 49.016 64.68 50.48C64.5536 51.9404 64.0118 53.3342 63.1187 54.4966C62.2256 55.659 61.0185 56.5416 59.64 57.04L59.68 57.2Z" fill="#202020"/>
</svg>
