<svg width="71" height="80" viewBox="0 0 71 80" fill="none" xmlns="http://www.w3.org/2000/svg">
<path d="M63.8643 41.504C63.3961 40.968 62.9026 40.4307 62.3838 39.892C62.7456 39.508 63.0968 39.1253 63.4373 38.744C69.8421 31.528 72.5477 24.288 70.0417 19.94C67.6394 15.768 60.4923 14.524 51.5415 16.268C50.6609 16.4413 49.7844 16.636 48.9118 16.852C48.7442 16.276 48.5672 15.7027 48.381 15.132C45.3442 5.96 40.4398 -0.00399799 35.4277 2.01083e-06C30.6231 2.01083e-06 25.9781 5.588 23.0132 14.232C22.7205 15.0853 22.4505 15.944 22.2031 16.808C21.6205 16.664 21.0352 16.5307 20.4472 16.408C11.0056 14.468 3.40363 15.748 0.901565 20.104C-1.49675 24.276 1.00931 31.104 6.99911 37.992C7.59503 38.672 8.20691 39.3387 8.83476 39.992C8.09252 40.752 7.39418 41.5133 6.73973 42.276C0.893585 49.068 -1.46882 55.78 0.925508 59.936C3.39964 64.232 10.8939 65.636 20.0202 63.836C20.7598 63.6893 21.4954 63.524 22.227 63.34C22.493 64.276 22.787 65.2053 23.1089 66.128C26.0619 74.596 30.679 80 35.4676 80C40.4159 80 45.3721 74.188 48.377 65.364C48.6138 64.668 48.8386 63.9467 49.0514 63.2C49.9959 63.4347 50.9469 63.6427 51.9047 63.824C60.6958 65.492 67.6753 64.184 70.0656 60.024C72.5358 55.724 69.9858 48.516 63.8643 41.504ZM3.85457 21.808C5.39491 19.128 11.6082 18.08 19.7609 19.76C20.2823 19.8667 20.813 19.9867 21.3531 20.12C20.5566 23.6495 19.994 27.228 19.6691 30.832C16.7298 32.9053 13.9267 35.1659 11.277 37.6C10.6944 36.9947 10.1264 36.3747 9.57301 35.74C4.43718 29.844 2.40999 24.324 3.85457 21.808ZM19.3658 44.72C17.3306 43.172 15.4351 41.588 13.7152 39.996C15.4311 38.412 17.3266 36.836 19.3618 35.292C19.2873 36.8627 19.2514 38.4347 19.2541 40.008C19.2541 41.5813 19.2913 43.152 19.3658 44.72ZM19.3658 60.48C15.9073 61.2555 12.3355 61.383 8.83077 60.856C7.87012 60.7798 6.9352 60.5073 6.08353 60.0553C5.23186 59.6034 4.48146 58.9815 3.87851 58.228C2.42196 55.708 4.32146 50.316 9.32161 44.508C9.94945 43.78 10.5986 43.0707 11.269 42.38C13.9191 44.8299 16.7279 47.1015 19.6771 49.18C20.0071 52.8293 20.5749 56.453 21.377 60.028C20.7119 60.196 20.0402 60.348 19.3618 60.484L19.3658 60.48ZM47.6986 28.324C46.3605 27.4787 45.0063 26.6613 43.6363 25.872C42.2848 25.0933 40.9187 24.3427 39.538 23.62C41.8086 22.6608 44.1245 21.8131 46.4775 21.08C47.0073 23.4723 47.4148 25.8901 47.6986 28.324ZM26.2415 15.34C28.7795 7.94 32.5386 3.42 35.4357 3.42C38.5204 3.416 42.5269 8.292 45.1487 16.208C45.3189 16.7253 45.4786 17.2453 45.6275 17.768C42.1859 18.8374 38.8186 20.1336 35.5474 21.648C32.2875 20.1141 28.9278 18.8031 25.4913 17.724C25.7227 16.924 25.9728 16.1293 26.2415 15.34ZM24.6453 21.036C26.9888 21.7731 29.293 22.6303 31.5489 23.604C28.7502 25.0493 26.026 26.624 23.3763 28.328C23.6955 25.776 24.1225 23.332 24.6453 21.036ZM23.3803 51.676C24.7025 52.5267 26.0446 53.344 27.4067 54.128C28.7954 54.928 30.2014 55.696 31.6247 56.432C29.3524 57.4387 27.0294 58.3266 24.6652 59.092C24.1151 56.6441 23.6863 54.1704 23.3803 51.68V51.676ZM45.1527 64.26C44.094 67.6494 42.4191 70.8133 40.2124 73.592C39.6675 74.3884 38.9659 75.0647 38.1506 75.5793C37.3353 76.0938 36.4236 76.4357 35.4716 76.584C32.5625 76.584 28.8553 72.244 26.3333 65C26.0353 64.144 25.7613 63.28 25.5112 62.408C28.9643 61.2929 32.3375 59.9431 35.6073 58.368C38.907 59.8928 42.3021 61.2009 45.7712 62.284C45.5797 62.948 45.3735 63.6067 45.1527 64.26ZM46.5972 58.964C44.2124 58.2193 41.8658 57.3569 39.5659 56.38C40.92 55.668 42.2835 54.9147 43.6562 54.12C45.0662 53.304 46.439 52.468 47.7745 51.612C47.5088 54.0814 47.1159 56.5353 46.5972 58.964ZM48.381 39.992C48.381 42.4213 48.3052 44.848 48.1536 47.272C46.1822 48.6107 44.1151 49.9067 41.9523 51.16C39.7974 52.4053 37.6731 53.5467 35.5794 54.584C33.3792 53.528 31.2217 52.3893 29.1067 51.168C27.005 49.9547 24.9512 48.6627 22.9453 47.292C22.7591 44.8653 22.666 42.436 22.666 40.004C22.666 37.5747 22.7564 35.1467 22.9373 32.72C26.9475 29.9725 31.1603 27.5348 35.5395 25.428C37.7103 26.4867 39.8426 27.6213 41.9363 28.832C44.038 30.0427 46.0998 31.3213 48.1216 32.668C48.2946 35.1053 48.381 37.5467 48.381 39.992ZM52.196 19.62C59.8658 18.128 65.6441 19.132 67.0927 21.648C68.637 24.328 66.4262 30.24 60.8914 36.472C60.5854 36.816 60.2688 37.1613 59.9416 37.508C57.2464 35.0647 54.3878 32.8088 51.3859 30.756C51.0841 27.1918 50.5442 23.6518 49.7697 20.16C50.5944 19.9573 51.4032 19.7773 52.196 19.62ZM51.6772 35.16C53.7033 36.6408 55.6507 38.227 57.5114 39.912C55.6592 41.6238 53.7184 43.2367 51.6972 44.744C51.7583 43.16 51.7889 41.576 51.7889 39.992C51.7889 38.3813 51.7517 36.7707 51.6772 35.16ZM67.1166 58.316C65.664 60.84 60.0613 61.892 52.5392 60.468C51.6772 60.3053 50.794 60.1107 49.8894 59.884C50.6456 56.3471 51.1616 52.7629 51.4338 49.156C54.4295 47.0674 57.2788 44.7754 59.9616 42.296C60.4324 42.784 60.8794 43.2693 61.3024 43.752C63.7034 46.3644 65.6016 49.3995 66.9011 52.704C67.317 53.5752 67.5507 54.5226 67.5877 55.4877C67.6248 56.4528 67.4645 57.4153 67.1166 58.316ZM31.924 33.752C30.7034 34.4585 29.7191 35.5119 29.0958 36.7791C28.4724 38.0463 28.2378 39.4703 28.4218 40.8711C28.6058 42.2719 29.2 43.5865 30.1293 44.6488C31.0586 45.7111 32.2813 46.4733 33.6428 46.8391C35.0042 47.2049 36.4433 47.1578 37.7781 46.7038C39.1129 46.2498 40.2834 45.4093 41.1416 44.2885C41.9998 43.1677 42.5073 41.817 42.5997 40.4072C42.6921 38.9974 42.3654 37.5917 41.6609 36.368C41.1931 35.5553 40.57 34.8429 39.8275 34.2716C39.0849 33.7003 38.2373 33.2812 37.3331 33.0383C36.4289 32.7953 35.4858 32.7333 34.5577 32.8558C33.6296 32.9783 32.7347 33.2828 31.924 33.752Z" fill="#202020"/>
</svg>
