<svg width="82" height="80" viewBox="0 0 82 80" fill="none" xmlns="http://www.w3.org/2000/svg">
<path fill-rule="evenodd" clip-rule="evenodd" d="M18.661 13.7268C17.8904 13.7152 17.1213 13.7996 16.3718 13.9782V14.1073H16.4983C16.9424 15.0144 17.7283 15.6022 18.2784 16.3836L19.5494 19.0369L19.6792 18.9112C20.4651 18.3609 20.8272 17.4775 20.8238 16.1288C20.5061 15.7992 20.4582 15.3847 20.1849 14.9906C19.8227 14.4674 19.1189 14.1685 18.661 13.7268ZM80.2199 78.6071C80.8178 79.0453 81.221 79.7248 82 80V79.8709C81.59 79.3545 81.4875 78.641 81.1117 78.1008C80.5581 77.5573 80.0069 77.0091 79.458 76.4565C77.7957 74.3228 75.8231 72.4473 73.6051 70.8915C71.8695 69.6515 67.971 67.9732 67.2466 65.9619L67.1168 65.8328C68.3502 65.6969 69.7955 65.2519 70.9333 64.9495C72.8466 64.4399 74.555 64.569 76.5298 64.0662L79.2017 63.3051V62.7955C78.204 61.7763 77.4934 60.4309 76.4034 59.5102C73.5539 57.0981 70.4481 54.6859 67.2466 52.6814C65.47 51.5637 63.2764 50.8435 61.3938 49.8956C60.7617 49.5796 59.6513 49.4131 59.2345 48.8865C58.2436 47.6295 57.7072 46.0429 56.9453 44.5854C55.3497 41.5278 53.778 38.1881 52.3669 34.9708C51.3999 32.7794 50.7713 30.6187 49.5652 28.6516C43.7909 19.2068 37.5725 13.5094 27.9442 7.90703C25.8942 6.71794 23.4273 6.2457 20.8238 5.63077L16.6247 5.37936C15.7705 5.02263 14.8822 3.98643 14.0826 3.48021C10.8914 1.47574 2.705 -2.88313 0.34747 2.84829C-1.14563 6.46653 2.57516 9.99644 3.90768 11.8276C4.84044 13.1153 6.03629 14.5558 6.70597 16.0031C7.14331 16.9543 7.21847 17.9056 7.59431 18.9112C8.52024 21.3913 9.32317 24.0821 10.519 26.3719C11.1272 27.5305 11.7934 28.7501 12.5554 29.7863C13.0269 30.4216 13.8264 30.7036 13.9528 31.6855C13.167 32.776 13.126 34.4714 12.6852 35.8575C10.6967 42.0917 11.4449 49.8378 14.3389 54.4515C15.2238 55.8648 17.3114 58.9021 20.1849 57.7368C22.6996 56.7176 22.1392 53.5648 22.8568 50.7823C23.0173 50.1504 22.9217 49.6849 23.2394 49.2637V49.3894L25.5286 53.9419C27.2233 56.6564 30.23 59.4933 32.7789 61.406C34.0977 62.398 35.1364 64.1137 36.8482 64.6947V64.5656H36.7218C36.3869 64.056 35.8676 63.8419 35.4508 63.4275C34.3931 62.4058 33.4143 61.3065 32.5226 60.1388C30.2061 57.0131 28.1595 53.5886 26.294 50.0247C25.4022 48.3192 24.6266 46.4438 23.8749 44.7111C23.5845 44.0418 23.5879 43.0328 22.9866 42.6863C22.1632 43.9569 20.9502 44.9829 20.3147 46.4812C19.2965 48.8764 19.1633 51.7981 18.7875 54.8286C18.5654 54.9068 18.6645 54.8524 18.5312 54.9543C16.7613 54.5296 16.1395 52.7154 15.4801 51.1594C13.8161 47.2286 13.5052 40.8924 14.971 36.3637C15.3502 35.1916 17.0654 31.502 16.3718 30.4182C16.037 29.3379 14.9471 28.7161 14.3355 27.8906C13.5392 26.7801 12.857 25.593 12.2991 24.3471C10.9393 21.2826 10.3003 17.8377 8.86533 14.7358C8.18199 13.2546 7.0203 11.7563 6.06704 10.4381C5.0147 8.97722 3.83251 7.90364 3.01592 6.13698C2.7255 5.50846 2.32916 4.50623 2.75967 3.86072C2.89634 3.42585 3.09109 3.24239 3.52501 3.1031C4.26302 2.53573 6.31646 3.28996 7.08522 3.60592C9.125 4.44847 10.8265 5.25026 12.552 6.39179C13.3822 6.93537 14.2227 7.99537 15.2238 8.28754H16.3684C18.1622 8.69523 20.1678 8.41325 21.8386 8.91946C24.794 9.81298 27.442 11.2025 29.8508 12.7144C37.183 17.3178 43.1759 23.868 47.276 31.6855C47.9354 32.9425 48.2224 34.1452 48.8033 35.4804C49.9752 38.1711 51.4512 40.94 52.6163 43.573C53.778 46.1992 54.9157 48.8492 56.5592 51.0337C57.4236 52.182 60.7651 52.8004 62.2856 53.4391C63.3482 53.8841 65.0907 54.353 66.0986 54.9543C68.0257 56.1094 69.8912 57.4854 71.6952 58.7492C72.5972 59.3845 75.375 60.7707 75.5117 61.9088C71.0358 61.7933 67.6191 62.2044 64.7012 63.4308C63.8709 63.7774 62.5487 63.7876 62.412 64.8204C62.8664 65.296 62.9382 66.0095 63.3003 66.5904C63.9974 67.7116 65.1761 69.2166 66.225 70.0048C67.3765 70.8678 68.5587 71.7885 69.7887 72.5359C71.9754 73.8609 74.4217 74.6219 76.5264 75.9503C77.7735 76.7351 79.0104 77.7203 80.2199 78.6071Z" fill="#202020"/>
</svg>
