<svg width="83" height="80" viewBox="0 0 83 80" fill="none" xmlns="http://www.w3.org/2000/svg">
<path d="M27.0827 9.41078L5.78378 5.61333C4.87723 5.44501 3.94149 5.53829 3.08601 5.88225C2.23052 6.22621 1.49065 6.80663 0.952914 7.55563C0.387797 8.31456 0.0588539 9.22319 0.00718474 10.168C-0.0444844 11.1128 0.183411 12.0519 0.662398 12.8679L37.6036 77.5284C38.0342 78.2821 38.6572 78.9079 39.4088 79.3421C40.1604 79.7763 41.0137 80.0033 41.8817 79.9999C42.7497 79.9965 43.6013 79.7629 44.3495 79.3229C45.0977 78.8829 45.7158 78.2522 46.1406 77.4952L82.3679 12.843C84.4015 9.21157 81.2805 4.88704 77.2133 5.62578L58.2302 8.99991L57.3752 12.1292L77.7362 8.51433C78.1027 8.4485 78.4804 8.48804 78.8253 8.62834C79.1702 8.76864 79.4682 9.00395 79.6847 9.30692C79.9011 9.60989 80.0272 9.96807 80.0481 10.3398C80.0691 10.7116 79.9841 11.0817 79.8031 11.407L43.5799 76.0593C43.3807 76.4193 43.0726 76.7072 42.6999 76.8816C42.3272 77.056 41.9089 77.1081 41.5048 77.0304C41.2227 76.9798 40.9552 76.8677 40.7213 76.702C40.4875 76.5363 40.293 76.3211 40.1518 76.0717L3.20649 11.4112C3.02261 11.0862 2.93504 10.7156 2.954 10.3426C2.97296 9.96969 3.09767 9.60986 3.31356 9.30518C3.52945 9.0005 3.82759 8.76356 4.17316 8.62204C4.51872 8.48053 4.89742 8.44029 5.265 8.50603L26.5681 12.3076L26.8752 12.3616L27.0827 9.41078Z" fill="#202020"/>
<path d="M54.3577 12.0255L55.03 9.56445L52.5399 10.0085L54.3577 12.0255ZM29.9543 9.92552L32.0834 10.299L29.834 12.0712L29.9543 9.92552Z" fill="#202020"/>
<path d="M56.2315 0.0189989L30.9151 5.24828C30.7092 5.29138 30.5244 5.40426 30.3922 5.56785C30.2566 5.73578 30.1769 5.94178 30.1639 6.15718L28.6076 33.9014C28.5978 34.0517 28.6222 34.2022 28.679 34.3417C28.7358 34.4811 28.8235 34.6059 28.9354 34.7066C29.0422 34.8062 29.1722 34.8774 29.3136 34.9136C29.455 34.9499 29.6032 34.95 29.7447 34.9141L36.7918 33.1959C37.4558 33.0382 38.0452 33.6524 37.9124 34.3497L35.8165 45.1652C35.6754 45.8956 36.3228 46.5181 36.9993 46.3023L41.3529 44.9078C42.0252 44.692 42.6768 45.3146 42.5316 46.045L39.2072 63.0319C38.9997 64.0985 40.3361 64.6754 40.8964 63.7665L41.2699 63.1564L61.8965 19.7284C62.2451 19.0021 61.6475 18.1721 60.8922 18.3256L53.6376 19.8031C52.9528 19.9442 52.3759 19.2719 52.5668 18.5705L57.2981 1.25162C57.4931 0.546077 56.9121 -0.122109 56.2315 0.0189989Z" fill="#202020"/>
</svg>
