<svg width="80" height="80" viewBox="0 0 80 80" fill="none" xmlns="http://www.w3.org/2000/svg">
<path d="M60.7009 79.5042C59.7697 79.9554 58.7205 80.1037 57.7006 79.9282C56.6808 79.7527 55.7415 79.2622 55.0146 78.5255L23.4813 49.6105L9.74548 60.092C9.12689 60.5614 8.36351 60.7993 7.58785 60.7644C6.81219 60.7296 6.07321 60.4242 5.4992 59.9012L1.08675 55.8699C0.744158 55.5546 0.470693 55.1716 0.283637 54.7452C0.0965804 54.3188 0 53.8582 0 53.3926C0 52.927 0.0965804 52.4664 0.283637 52.04C0.470693 51.6136 0.744158 51.2306 1.08675 50.9153L12.9948 39.9906L1.08675 29.0659C0.744158 28.7506 0.470693 28.3676 0.283637 27.9412C0.0965804 27.5148 0 27.0543 0 26.5886C0 26.123 0.0965804 25.6624 0.283637 25.236C0.470693 24.8096 0.744158 24.4266 1.08675 24.1113L5.49304 20.08C6.06822 19.5564 6.8088 19.2511 7.58582 19.2174C8.36285 19.1837 9.1271 19.4236 9.74548 19.8953L23.4813 30.3707L55.0146 1.46182C55.7442 0.731475 56.6825 0.245671 57.6999 0.07148C58.7174 -0.102711 59.7638 0.0433054 60.6948 0.489368L77.1691 8.45362C78.8984 9.29067 80 11.0509 80 12.9835V43.068H60.0117V21.7356L36.0848 39.9906L60.0117 58.2456V43.068H80V67.0038C80 68.9364 78.8984 70.6967 77.1691 71.5337L60.7009 79.5042Z" fill="#202020"/>
</svg>
